<svg xmlns="http://www.w3.org/2000/svg" width="350" height="186.165" viewBox="0 0 350 186.165"><defs><style>.a{fill:#222121;}</style></defs><g transform="translate(0.055 0.087)"><g transform="translate(-0.055 -0.087)"><path class="a" d="M160.966,166.531a13.9,13.9,0,0,1-1.715-3.086c-1.029-6.173,2.058-14.06,9.6-23.662s10.974-16.8,10.288-21.262c0-.343,0-.343-.343-.686-.343,0-.343-.343-.686,0-2.058.343-4.8,3.086-8.573,8.573s-7.544,11.317-12,17.832c.343.686.686,1.029,1.029,1.715s.343,1.372.686,2.058a11.3,11.3,0,0,1,0,4.8c-.343,1.029-.686,2.4-1.029,3.429h-.343l-.343-.343c0-.686.343-1.715.343-2.4a12.989,12.989,0,0,0,0-5.144c0-.686-.343-1.029-.343-1.715a1.782,1.782,0,0,0-.686-1.372,139.7,139.7,0,0,1-14.06,17.832,26.747,26.747,0,0,1-14.06,9.6,8.262,8.262,0,0,1-6.173-1.372,7.352,7.352,0,0,1-3.772-6.516c-1.029-5.487,1.372-10.631,6.859-16.118a32.744,32.744,0,0,1,16.8-9.259,30.332,30.332,0,0,1,7.887,0,10.639,10.639,0,0,1,6.173,3.086q6.687-9.259,12.345-17.489c3.772-5.144,6.859-8.23,8.916-8.573a1.528,1.528,0,0,1,2.058,1.029,23.628,23.628,0,0,1,1.029,2.743q1.543,7.716-9.259,23.662c-7.2,10.288-10.288,17.832-9.6,21.6a1.2,1.2,0,0,0,.343.686c.343,0,.343.343.686.343a14.213,14.213,0,0,0,7.544-5.83,49.282,49.282,0,0,0,6.173-8.573l.343.343v.343q0,1.029-5.144,8.23c-3.429,4.458-6.516,7.2-8.573,7.544C162.681,167.9,161.652,167.56,160.966,166.531Zm-19.2-5.144a142.934,142.934,0,0,0,14.06-18.175,8.911,8.911,0,0,0-5.487-3.086,30.332,30.332,0,0,0-7.887,0,25.713,25.713,0,0,0-15.089,10.288c-4.8,6.173-6.859,11.317-6.173,16.461a6.631,6.631,0,0,0,1.715,3.086,4.817,4.817,0,0,0,4.8.686c4.8-.686,9.259-3.772,14.06-9.259Zm48.01-1.029c-.343,0-.686-.343-1.029-.343l-1.029-1.029c-.343-.343-.343-.686-.343-1.372V155.9c0-.686.343-1.372.343-2.058l-.343.343a36.707,36.707,0,0,1-4.8,5.487,9.726,9.726,0,0,1-3.772,2.743,2.12,2.12,0,0,1-2.4-.686,4.233,4.233,0,0,1-1.372-2.743c-.343-2.743,1.029-6.516,4.458-11.66,3.429-4.8,6.859-7.544,9.6-8.23a6.548,6.548,0,0,1,2.743,1.029,4.734,4.734,0,0,1,1.029,1.372v.686c2.4-4.8,5.487-10.288,8.573-16.461s4.458-9.6,4.458-10.974a2.964,2.964,0,0,1,2.058,1.029,2.6,2.6,0,0,1,.686,1.372c.343,1.715-1.715,6.173-5.487,13.374-4.115,7.2-6.859,12.688-8.573,16.118-2.058,4.115-3.429,6.859-3.772,8.573a4.718,4.718,0,0,0-.343,3.772,11.43,11.43,0,0,0,6.516-5.487,40.689,40.689,0,0,0,5.487-7.887h.343v.343c0,.686-1.372,3.086-4.458,7.2s-5.83,6.516-7.544,6.859a1.26,1.26,0,0,1-1.029.343Zm-7.544-2.058a59.608,59.608,0,0,0,4.458-5.144l2.058-2.743a12.03,12.03,0,0,0,1.715-2.743v-.343l.343-.686.343-.686a4.956,4.956,0,0,0,.686-2.4,5.6,5.6,0,0,0,0-2.4c0-.343,0-.343-.343-.686l-.343-.343a24.638,24.638,0,0,0-8.23,8.573c-3.772,5.144-5.487,8.916-5.487,11.66a.336.336,0,0,0,.343.343h.686a6.52,6.52,0,0,0,3.772-2.4Zm34.293-24a3.7,3.7,0,0,1,1.029,2.4,9.694,9.694,0,0,1-1.372,6.173,50.734,50.734,0,0,1-4.458,7.2,58.628,58.628,0,0,1-3.772,4.8,6.826,6.826,0,0,1-4.115,2.743H202.8a2.6,2.6,0,0,1-1.372-.686L200.4,155.9c-.343-.686-.686-1.029-.686-1.715a14.5,14.5,0,0,1,2.4-9.259,17.169,17.169,0,0,0,3.086-8.23,2.916,2.916,0,0,1,1.715,1.029c.343.343.343,1.029.686,1.372a20.368,20.368,0,0,1-2.4,8.916q-3.086,6.173-2.058,8.23h1.029a8.1,8.1,0,0,0,3.086-2.058,23.611,23.611,0,0,0,3.772-4.458,59.649,59.649,0,0,0,3.772-6.173,7.866,7.866,0,0,0,.343-4.8,2.619,2.619,0,0,0-.686-1.715,1.26,1.26,0,0,0-1.029-.343c-.343,0-.686.343-1.029.343-.343.343-.686.686-.686,1.029h0a4.56,4.56,0,0,1,1.029-2.743,3.626,3.626,0,0,1,2.4-2.058c0,.343.686.686,1.372,1.029Zm15.089,18.861c-.343,0-.686-.343-1.029-.343l-1.029-1.029a2.57,2.57,0,0,1-.343-1.715v-1.029a2.062,2.062,0,0,1,.343-1.372,59.611,59.611,0,0,1-4.458,5.144,7.839,7.839,0,0,1-3.429,2.4,2.12,2.12,0,0,1-2.4-.686,6.162,6.162,0,0,1-1.372-3.086q-.514-4.115,4.115-11.317a16.875,16.875,0,0,1,9.6-7.887,3.894,3.894,0,0,1,2.743,1.029c.343.343.686,1.029,1.029,1.372v1.029l1.029-2.058c0-.343.343-1.029.343-1.372a1.886,1.886,0,0,1,1.715,1.029,2.062,2.062,0,0,1,.343,1.372,17.605,17.605,0,0,1-3.429,8.23,15.047,15.047,0,0,0-3.086,9.259,11.43,11.43,0,0,0,6.516-5.487,40.69,40.69,0,0,0,5.487-7.887h.343v.343c0,.686-1.372,3.086-4.458,7.2s-5.83,6.516-7.544,6.859Zm2.4-19.2-.343-.343c-2.4.686-5.144,3.429-8.573,8.573s-5.144,8.916-4.8,11.317a.336.336,0,0,0,.343.343h.686a12.317,12.317,0,0,0,3.429-2.4,59.614,59.614,0,0,0,4.458-5.144,14.911,14.911,0,0,0,1.372-2.4c.686-1.029,1.029-1.715,1.715-2.743a12.181,12.181,0,0,0,1.372-3.086,4.842,4.842,0,0,0,.343-3.086v-1.029Zm28.463,8.573a40.692,40.692,0,0,0,5.487-7.887h.343v.343c0,.686-1.372,3.086-4.458,7.2s-5.83,6.516-7.544,6.859h-.686c-.343,0-.686-.343-1.029-.343a4.734,4.734,0,0,1-1.029-1.372c-.343-.343-.343-1.029-.686-1.715-.343-2.4,1.029-5.487,4.458-9.945s4.458-6.859,3.772-7.887h-.686a9.362,9.362,0,0,0-4.115,3.086,63.082,63.082,0,0,0-5.83,7.544c-1.372,2.058-2.743,4.115-4.115,6.516s-2.743,4.458-3.772,6.516c-.686,0-1.372,0-1.715-.686l-1.029-2.058a23.706,23.706,0,0,1,3.429-8.573,38.991,38.991,0,0,0,4.458-10.288,1.886,1.886,0,0,1,1.715,1.029c.343.343.343,1.029.686,1.372a12.184,12.184,0,0,1-.686,3.429c-.686,1.372-1.372,3.086-2.058,4.8v.343a7.5,7.5,0,0,0,1.029-1.715c.343-.686.686-1.029,1.029-1.715a63.081,63.081,0,0,1,5.83-7.544,10.442,10.442,0,0,1,4.458-3.086,4.349,4.349,0,0,1,2.058.343c.686.343,1.029,1.372,1.372,2.058a14.648,14.648,0,0,1-3.429,9.945c-2.743,4.115-4.115,6.859-3.772,8.23a9.3,9.3,0,0,0,6.516-4.8Zm5.487,4.458c-.343,0-.686-.343-1.029-.343l-1.029-1.029c-.343-.343-.343-1.029-.686-1.372a7.062,7.062,0,0,1,1.029-5.144,78.256,78.256,0,0,1,3.772-7.2c.343-.686,1.029-1.715,1.372-2.4s1.029-1.715,1.372-2.4l-1.372.343h-1.372a1.26,1.26,0,0,1-.343-1.029l4.115-.686c2.4-4.458,4.8-8.573,6.516-12.345a20.019,20.019,0,0,0,2.743-7.544,2.964,2.964,0,0,1,2.058,1.029,2.6,2.6,0,0,1,.686,1.372,21.8,21.8,0,0,1-2.058,6.173c-1.715,3.086-3.429,6.859-5.487,10.631l3.429-.686a1.26,1.26,0,0,1,1.029.343c0,.343.343.343.343.686-1.029.343-1.715.343-2.743.686s-1.715.343-2.743.686c-.686,1.372-1.372,2.4-2.058,3.772a37.414,37.414,0,0,1-2.058,3.772c-1.715,3.429-3.086,6.173-3.772,7.887a5.9,5.9,0,0,0-.686,4.115,15.8,15.8,0,0,0,7.887-5.487,66.943,66.943,0,0,0,5.83-7.887h.343v.343c0,.686-1.372,3.086-4.8,7.2a17.118,17.118,0,0,1-8.573,6.859,4.589,4.589,0,0,0-1.715-.343Zm25.034-4.458c-.343,0-.686-.343-1.029-.343l-1.029-1.029a2.57,2.57,0,0,1-.343-1.715v-1.029a2.062,2.062,0,0,1,.343-1.372,59.611,59.611,0,0,1-4.458,5.144,7.84,7.84,0,0,1-3.429,2.4,2.12,2.12,0,0,1-2.4-.686,6.162,6.162,0,0,1-1.372-3.086q-.514-4.115,4.115-11.317a16.875,16.875,0,0,1,9.6-7.887,3.894,3.894,0,0,1,2.743,1.029c.343.343.686,1.029,1.029,1.372v1.029l1.029-2.058a2.062,2.062,0,0,0,.343-1.372,1.886,1.886,0,0,1,1.715,1.029,2.062,2.062,0,0,1,.343,1.372,17.605,17.605,0,0,1-3.429,8.23,15.047,15.047,0,0,0-3.086,9.259,11.43,11.43,0,0,0,6.516-5.487,40.69,40.69,0,0,0,5.487-7.887h.343v.343c0,.686-1.372,3.086-4.458,7.2s-5.83,6.516-7.544,6.859a.643.643,0,0,1-1.029,0Zm2.4-19.2-.343-.343c-2.4.686-5.144,3.429-8.573,8.573s-5.144,8.916-4.8,11.317a.336.336,0,0,0,.343.343h.686a12.316,12.316,0,0,0,3.429-2.4,59.612,59.612,0,0,0,4.458-5.144,14.912,14.912,0,0,0,1.372-2.4c.686-1.029,1.029-1.715,1.715-2.743a12.181,12.181,0,0,0,1.372-3.086,4.842,4.842,0,0,0,.343-3.086v-1.029ZM290.25,165.16a6.168,6.168,0,0,1-2.058-3.086,7.317,7.317,0,0,1,0-2.743,6.893,6.893,0,0,1,1.372-2.743c.343-.343.686-1.029,1.372-1.372a2.6,2.6,0,0,1,1.372-.686h1.029a.336.336,0,0,1,.343.343v.686c0,.343-.343.343-.343.686a16.02,16.02,0,0,0-1.715,3.429,6.183,6.183,0,0,0-.686,3.429,7.173,7.173,0,0,0,1.372,2.058,4.349,4.349,0,0,0,2.058.343q3.6-.514,9.259-9.259a147.754,147.754,0,0,0,8.916-16.118c.686-1.715,1.715-3.429,2.4-5.144A22.832,22.832,0,0,1,317,130.867l-1.372,1.715c-1.372,2.058-3.086,3.772-4.458,5.487a7.839,7.839,0,0,1-3.429,2.4,2.667,2.667,0,0,1-2.743-.686,6.162,6.162,0,0,1-1.372-3.086c-.343-2.743,1.029-6.516,4.458-11.317a17.59,17.59,0,0,1,9.945-7.887,3.894,3.894,0,0,1,2.743,1.029,4.735,4.735,0,0,1,1.029,1.372v.686a4.874,4.874,0,0,0,.686-2.058c0-.686.343-.686.343-1.029,1.029.343,1.715.686,1.715,1.029a2.062,2.062,0,0,1,.343,1.372,15.17,15.17,0,0,1-1.715,5.144q-2.058,4.115-9.259,19.547a101.33,101.33,0,0,1-7.887,13.031,17.751,17.751,0,0,1-10.631,8.573,5.574,5.574,0,0,1-5.144-1.029Zm29.492-45.952c0-.343-.343-.343-.343-.686-2.058.686-4.8,3.429-8.573,8.573s-5.487,8.916-5.144,11.66l.343.343h.686a7.84,7.84,0,0,0,3.429-2.4,59.616,59.616,0,0,0,4.458-5.144,12.03,12.03,0,0,0,1.715-2.743,12.031,12.031,0,0,0,1.715-2.743,12.182,12.182,0,0,0,1.372-3.086,9.494,9.494,0,0,0,.343-3.086v-.686Zm16.118,14.06a20.075,20.075,0,0,1-5.83,3.429,4.842,4.842,0,0,1-3.086-.343c-1.029-.686-1.372-2.058-1.715-3.429A15.19,15.19,0,0,1,329,121.608a16.19,16.19,0,0,1,9.259-7.887,4.956,4.956,0,0,1,2.4.686,1.886,1.886,0,0,1,1.029,1.715,4.349,4.349,0,0,1-.343,2.058c-.343.686-1.029,1.715-1.372,2.4a19.651,19.651,0,0,1-3.772,3.772,11.589,11.589,0,0,1-4.115,2.058h-1.372c-.686,1.372-1.372,3.086-2.058,4.8a17.213,17.213,0,0,0-.686,4.115l.343.343h1.029a13.716,13.716,0,0,0,6.173-3.429,30.948,30.948,0,0,0,6.516-6.859c.343-.686,1.029-1.372,1.372-2.058s.686-1.029,1.029-1.715h.343v.343c0,.686-.343,1.029-.686,1.715l-2.058,3.086a22.26,22.26,0,0,1-6.173,6.516Zm-4.115-7.887a10.727,10.727,0,0,0,3.429-1.715,16.256,16.256,0,0,0,3.429-3.429,8.6,8.6,0,0,0,1.372-2.4,2.57,2.57,0,0,0,.343-1.715c0-.343,0-.686-.343-.686a.336.336,0,0,0-.343-.343,11.141,11.141,0,0,0-4.458,3.429,29.415,29.415,0,0,0-4.458,6.859ZM12.478,164.131a18.5,18.5,0,0,1-7.2-12.688A39.915,39.915,0,0,1,7.334,133.61,36.891,36.891,0,0,1,.475,118.178c-5.144-31.206,28.463-49.725,44.238-60.7-10.631-2.058-16.8-8.916-18.175-16.461-2.058-12,8.23-24.691,17.146-28.463a4.349,4.349,0,0,1-.343,2.058,50.821,50.821,0,0,0-8.23,8.916,23.777,23.777,0,0,0-5.144,17.146C31,47.535,36.826,53.708,47.8,54.737a16.257,16.257,0,0,0,3.429-3.429c5.144-7.544-5.144-14.746,6.516-31.549C64.26,10.842,81.407,1.926,91.694.211c7.544-1.372,12.688,2.058,14.06,8.916,3.429,19.547-21.6,43.895-45.952,48.01a56.449,56.449,0,0,1-7.2.686c-.686,1.029-1.715,2.4-2.743,3.772C41.627,72.912,1.5,94.174,5.962,120.579q1.543,4.63,3.086,8.23a107.284,107.284,0,0,1,12.688-24C28.6,95.2,43.341,79.771,57.4,77.37c9.945-1.715,15.089,2.743,16.8,12,3.086,18.175-18.861,47.324-44.581,51.782a27.914,27.914,0,0,1-14.06-1.372,48.281,48.281,0,0,0-.343,9.945,19.878,19.878,0,0,0,5.83,12.688c1.715,1.029,2.743,1.029,5.487-.343.343.343.343.686,0,1.372-1.715,2.743-8.573,4.115-14.06.686ZM69.4,88.687c-.686-4.8-2.743-10.288-10.631-8.916C48.485,81.485,38.2,92.116,28.939,105.147a78.613,78.613,0,0,0-13.031,31.206,16.393,16.393,0,0,0,9.945,1.029c23.319-4.458,46.638-32.235,43.552-48.7ZM103.011,9.813c-.686-4.115-3.086-7.2-7.2-6.516C89.98,4.326,71.119,18.729,64.6,27.645,53.972,42.391,59.116,45.478,54.658,55.08a26.471,26.471,0,0,0,5.144-.686c20.576-3.429,45.952-28.463,43.209-44.581ZM80.721,177.505c-.686-4.8,8.916-27.434,22.29-55.211,4.458-9.259,8.573-17.489,12-24.691a21.344,21.344,0,0,0-2.743,4.115c-8.573,12-17.146,20.919-21.947,21.6-5.487,1.029-9.6-3.086-10.974-9.945-2.4-15.089,21.262-49.039,38.065-51.782,7.544,1.372,9.6,4.115,9.945,6.173a8.359,8.359,0,0,1,0,4.115c2.4-4.8,3.429-8.23,3.086-9.259l-.343-1.372a7.705,7.705,0,0,1,5.83,6.859c1.372,8.916-8.573,25.034-19.547,48.7-12,26.063-27.091,60.355-28.806,69.272-4.115-.343-6.173-5.487-6.859-8.573ZM123.244,65.368C112.27,68.8,85.179,105.49,86.55,119.55a2.667,2.667,0,0,0,2.743.686c4.115-.686,13.031-8.916,20.919-20.233,3.429-4.8,6.859-9.6,9.945-14.746a27.763,27.763,0,0,0,4.8-17.146,19.144,19.144,0,0,0-1.715-2.743ZM172.283,107.2a10.828,10.828,0,0,1-4.458-7.544,18.287,18.287,0,0,1,.686-8.573c-6.859,9.945-16.118,21.6-21.6,22.633a6.145,6.145,0,0,1-4.8-1.372,10.828,10.828,0,0,1-4.458-7.544c-2.058-11.66,8.916-25.034,19.89-48.7a6.721,6.721,0,0,1,5.83,6.859c1.372,7.544-18.861,35.322-17.832,47.667,8.23-1.372,21.947-21.947,28.463-32.921,3.772-7.2,8.916-15.775,13.717-26.405a6.721,6.721,0,0,1,5.83,6.859c1.372,7.544-18.861,35.322-17.832,47.667,9.6-1.715,27.091-24.691,32.921-35.322.343,0,.686.343.686,1.029.686,4.115-22.633,35.665-32.578,37.379a11.982,11.982,0,0,1-4.458-1.715Zm68.586-42.523c.343,0,.686.343.686,1.029.686,4.115-22.633,35.665-32.578,37.379a5.071,5.071,0,0,1-4.458-1.372,15.017,15.017,0,0,1-4.8-7.544c-2.058-11.317,8.916-24.691,19.89-48.353a6.721,6.721,0,0,1,5.83,6.859c1.372,7.544-18.518,34.979-17.489,47.324,9.6-1.715,27.091-24.691,32.921-35.322Zm-.686-43.209a8.576,8.576,0,0,1-5.83,8.916c-2.058.343-4.115-.686-4.458-2.743V26.96a9.01,9.01,0,0,1,5.487-8.916,3.9,3.9,0,0,1,4.8,2.743v.686Zm64.471,32.235c.343,0,.686.343.686,1.029.686,4.115-22.633,35.665-32.578,37.379a6.145,6.145,0,0,1-4.8-1.372A10.828,10.828,0,0,1,263.5,83.2c-2.058-12.688,25.72-42.523,21.6-47.667h-2.4c-5.144,1.029-15.089,11.66-26.063,28.12-7.2,10.974-14.746,23.319-20.919,34.979-3.429.686-6.173-2.743-6.859-7.2-1.029-6.173,19.547-38.751,21.262-50.753,3.429.343,5.83,3.429,6.173,6.859.686,3.772-3.086,12.688-7.544,22.29l.343.686c1.715-2.743,3.772-5.83,5.83-8.916,11.317-16.8,20.233-27.091,27.434-28.12a7.412,7.412,0,0,1,8.573,6.173v.343c2.4,13.374-20.576,41.494-19.2,49.039,9.6-1.372,27.434-24.691,32.921-35.322ZM309.8,85.943c-6.516,1.029-10.631-1.372-12-9.945-2.743-16.461,17.489-48.01,34.636-51.439,5.83,1.029,8.573,2.058,9.259,6.516.686,3.429-2.058,7.887-5.144,12-5.144,7.544-14.746,14.06-21.262,15.432a9.494,9.494,0,0,1-3.086.343c-4.458,8.573-7.544,17.489-6.859,23.319,0,.343,1.029,1.029,3.429.343,8.916-1.372,24.691-13.717,34.293-26.748a57.113,57.113,0,0,0,6.173-9.6c.343,0,.686.343.686,1.029.343,1.372-2.743,6.516-7.2,12.688-9.259,12.688-25.034,24.691-32.921,26.063Zm23.662-43.552c3.429-4.8,5.144-8.573,4.8-10.631a5.411,5.411,0,0,0-1.029-2.743c-6.516,1.715-17.146,14.4-24.005,27.777l1.715-.343c5.144-1.372,14.06-7.544,18.518-14.06Z" transform="translate(0.055 0.087)"/></g></g></svg>