<?xml version="1.0" encoding="utf-8"?>
<!-- Generator: Adobe Illustrator 23.0.4, SVG Export Plug-In . SVG Version: 6.00 Build 0)  -->
<svg version="1.1" id="Layer_1" xmlns="http://www.w3.org/2000/svg" xmlns:xlink="http://www.w3.org/1999/xlink" x="0px" y="0px"
	 viewBox="0 0 120.6 78.1" style="enable-background:new 0 0 120.6 78.1;" xml:space="preserve">
<style type="text/css">
	.st0{clip-path:url(#SVGID_2_);}
	.st1{fill:#161616;}
</style>
<g>
	<defs>
		<rect id="SVGID_1_" x="0" width="120.6" height="78.1"/>
	</defs>
	<clipPath id="SVGID_2_">
		<use xlink:href="#SVGID_1_"  style="overflow:visible;"/>
	</clipPath>
	<g id="Component" class="st0">
		<path id="Path_5" class="st1" d="M34.6,41.7c0.2,0,0.5,0,0.5,0.3c0,0.1,0,0.3-0.4,0.3l-0.5,0.1c-0.5,0.1-0.7,0.4-0.7,1.1l0,2.4V48
			c0,0.5,0,0.6-0.3,0.8c-1.5,0.6-3.2,1-4.9,0.9c-4.5,0-9.4-2.1-9.4-8c-0.1-2.7,1.3-5.2,3.5-6.6c1.6-1,3.5-1.4,5.4-1.3
			c1.2,0,2.4,0.1,3.6,0.3c0.5,0.1,1,0.2,1.6,0.2c0.3,0,0.4,0.1,0.4,0.3l0,0.2c-0.1,1-0.1,2-0.1,3.1c0,0.2,0,0.5-0.3,0.5
			c-0.2,0-0.3-0.2-0.3-0.3c0-0.6-0.3-1.2-0.7-1.6c-1.2-1.1-2.8-1.6-4.4-1.5c-1.4-0.1-2.8,0.3-3.9,1.2c-1.2,1-1.8,2.6-1.8,4.8
			c0,4.4,2.8,7.4,6.9,7.4c0.6,0,1.1,0,1.7-0.2c0.2-0.1,0.3-0.3,0.3-0.7v-1.9l0-2.4c0-0.7-0.2-0.9-0.8-1.1c-0.3,0-0.5-0.1-0.8-0.1
			c-0.3,0-0.4-0.1-0.4-0.3c0-0.3,0.3-0.3,0.5-0.3l1.8,0l1.1,0L34.6,41.7 M80,34.1l-1.6,0l-0.4,0l-0.7,0l-1.7,0c-0.2,0-0.6,0-0.6,0.3
			s0.3,0.3,0.4,0.3c0.3,0,0.7,0,1,0.1c0.4,0.2,0.6,0.5,0.6,1.7c0,0,0.2,7.8,0.2,8.9c-0.1-0.1-1.4-1.4-1.4-1.4l-3-3.1
			c-3-3-6.2-6.4-6.2-6.4l-0.2-0.2c-0.2-0.3-0.4-0.5-0.6-0.5c-0.4,0-0.4,0.6-0.4,0.8l-0.2,11.9c0,1.7-0.1,2.3-0.6,2.4l-0.2,0
			l-0.3,0.1c-0.3,0-0.4,0.1-0.4,0.3c0,0.3,0.3,0.3,0.5,0.3l1.5,0l0.3,0l0.6,0l1.9,0c0.2,0,0.6,0,0.6-0.3c0-0.3-0.3-0.3-0.4-0.3
			c-0.3,0-0.7,0-1-0.1c-0.3-0.1-0.6-0.4-0.6-2.1c0,0-0.2-7.9-0.2-8.2c0.1,0.1,0.3,0.4,0.3,0.4c0.8,0.9,2.6,2.8,4.3,4.6l2.7,2.7
			l3.3,3.2c0.2,0.2,0.5,0.4,0.7,0.5c0.3,0,0.4-0.4,0.4-0.7l0.2-12.7c0-1.1,0.2-1.5,0.7-1.6l0.6-0.1c0.4,0,0.5-0.2,0.5-0.3
			C80.5,34.1,80.2,34.1,80,34.1 M96.3,36.4c1.3,1.4,2,3.3,2,5.2c0,2.1-0.8,4.1-2.2,5.7c-0.7,0.7-2.8,2.4-6.8,2.4
			c-0.7,0-1.6-0.1-2.3-0.1l-0.2,0L85,49.4l-1.1,0l-1.4,0c-0.3,0-0.5-0.1-0.5-0.3c0-0.2,0.1-0.3,0.4-0.3l0.7-0.1
			c0.3-0.1,0.4-0.4,0.5-1c0.1-0.8,0.1-2.4,0.1-4.3V40c0-3.1,0-3.6,0-4.2c0-0.6-0.2-0.9-0.8-1.1c-0.3,0-0.5-0.1-0.8-0.1
			c-0.1,0-0.4,0-0.4-0.3s0.3-0.3,0.5-0.3l1.9,0l1,0l1.1,0l2,0C90.6,34.1,94.1,34.1,96.3,36.4 M86.4,42.2c0,2.2,0,3.7,0,4.1
			c0,0.5,0.1,1,0.2,1.5c0.1,0.2,0.7,0.8,2.6,0.8c1.6,0.1,3.3-0.4,4.6-1.4c1.1-1,1.6-2.6,1.6-4.9c0.1-1.8-0.6-3.6-1.9-4.9
			c-1.5-1.4-3.6-2.1-5.6-2c-0.4,0-0.8,0-1.3,0.1c-0.1,0.1-0.2,0.1-0.2,0.3l0,4L86.4,42.2 M64.7,49.2c0,0,0,0.1,0,0.2
			c-0.1,0.1-0.2,0.1-0.6,0.1l-3.8,0l-0.1,0c-0.4,0-0.6,0-0.6-0.2c0-0.2,0.2-0.3,0.4-0.3c0.1,0,0.1-0.1,0.1-0.1c0-0.1,0-0.2,0-0.2
			l-1.6-4.3c0-0.1-0.1-0.1-0.1-0.1h-3.7v0h-0.9c0,0,0,0-0.1,0.1l-1.1,2.9c-0.2,0.4-0.3,0.8-0.3,1.2c0,0.3,0.1,0.5,0.7,0.5h0.3
			c0.1,0,0.4,0,0.4,0.3c0,0.3-0.3,0.3-0.4,0.3l-2.1,0l-2.1,0c-0.5,0-1-0.2-1.5-0.4c-1.1-0.8-2.1-1.8-2.8-3l-1-1.4l-1-1.3
			c-0.1-0.1-0.2-0.1-0.3-0.1l-1.7,0c-0.1,0-0.1,0-0.1,0.1v0.3c0,1.8,0,3.4,0.1,4.3c0.1,0.6,0.2,0.9,0.7,1l1,0.1
			c0.3,0,0.3,0.2,0.3,0.3c0,0.2-0.2,0.3-0.5,0.3l-2.3,0l-0.6,0l-0.8,0l-1.6,0c-0.3,0-0.5-0.1-0.5-0.3c0-0.3,0.3-0.3,0.4-0.3l0.7-0.1
			c0.3-0.1,0.4-0.4,0.5-1c0.1-0.8,0.1-2.4,0.1-4.3V40c0-3.1,0-3.6,0-4.2c0-0.6-0.2-0.9-0.8-1.1c-0.3,0-0.5-0.1-0.8-0.1
			c-0.1,0-0.4,0-0.4-0.3s0.3-0.3,0.5-0.3l1.9,0l0.8,0l1.5,0l1.4,0c1.3-0.1,2.6,0.2,3.7,0.9c0.9,0.7,1.4,1.7,1.4,2.8
			c0,1.7-0.8,3-2.6,4.5c0.1,0.1,0.6,0.8,0.6,0.8c1.5,1.9,2.6,3.3,3.7,4.4c0.5,0.5,0.9,0.8,1.1,0.8c0.1,0,0.1,0,0.2-0.1
			c0.2-0.3,0.4-0.7,0.5-1.1c0,0,0.5-1.2,1.2-2.9c-0.6-0.2-1.3,0-1.8,0.4C50,45,50.6,43.9,51,43.5c0.4-0.3,1-0.5,1.5-0.5
			c1.5-3.7,3.4-8.5,3.4-8.5c0.2-0.6,0.4-0.9,0.7-0.9c0.2,0,0.4,0.2,0.6,0.7l1.8,4.5l3.2,7.9c0.7,1.7,1.3,2,1.7,2.1l0.2,0.1l0.2,0
			C64.4,48.9,64.7,48.9,64.7,49.2L64.7,49.2 M57.9,43L57.9,43c0,0-1.8-5-1.8-5c0,0,0,0,0,0l0,0.1c0,0-1.8,4.9-1.9,5L57.9,43z
			 M44.8,38.8c0-2.8-1.9-3.6-3-3.6c-0.3,0-0.7,0-1,0.1c-0.1,0-0.1,0.1-0.1,0.2v6.1c0,0.2,0,0.2,0.1,0.3c0.5,0.1,1,0.2,1.5,0.2
			c0.5,0.1,1,0,1.4-0.3C44.5,41,45,39.9,44.8,38.8 M20.6,68.2c-0.4,0-0.8-0.1-1.2-0.2c-0.5-0.1-0.7-0.6-0.9-2l-1.8-12.5
			c0-0.2-0.1-0.7-0.5-0.7c-0.2,0-0.4,0.2-0.5,0.5c0,0-4.7,9.9-5.4,11.3c-0.2-0.3-5.4-11.2-5.4-11.2c-0.3-0.5-0.4-0.7-0.6-0.7
			c-0.1,0-0.3,0.1-0.4,0.6l-2,13.1c-0.1,0.7-0.3,1.4-0.7,1.5l-0.6,0.1c-0.3,0-0.4,0.1-0.4,0.2c0,0.2,0.2,0.3,0.5,0.3l1.2,0l0.8,0
			l0.6,0l1.5,0c0.2,0,0.6,0,0.6-0.3c0-0.1,0-0.2-0.4-0.2c-0.3,0-0.6,0-0.8-0.1c-0.4-0.1-0.5-0.3-0.5-0.6l0.1-0.9c0,0,0.9-6.7,1-7.8
			c0.1,0.3,0.8,1.8,0.8,1.8l1.2,2.5c0.2,0.6,1.8,3.6,2.3,4.6l0.1,0.1c0.3,0.6,0.5,0.9,0.7,0.9c0.2,0,0.4-0.2,0.8-1.2
			c0,0,3.8-7.8,4.3-9c0,0.4,1.2,8.7,1.2,8.7c0,0.1,0,0.3,0,0.4c0,0.2,0,0.3-0.1,0.3c-0.1,0.1-0.3,0.1-0.3,0.3c0,0.2,0.3,0.3,0.7,0.3
			c0.8,0.1,3.6,0.1,4.1,0.1c0.5,0,0.6-0.2,0.6-0.3C21,68.2,20.7,68.2,20.6,68.2 M32.1,65.5c-0.2,0-0.3,0.2-0.3,0.4
			c-0.1,0.8-0.4,1.2-0.9,1.4c-0.6,0.2-1.2,0.3-1.9,0.2c-2.1,0-2.3-0.3-2.3-1.6v-2.3v-0.8v-1.6l0-0.1c0.6,0,2.5,0,2.9,0.1
			c0.8,0.1,1,0.4,1,0.7l0.1,0.5l0,0.2c0,0.1,0.1,0.3,0.2,0.3c0,0,0,0,0.1,0c0.3,0,0.3-0.3,0.3-0.5l0-0.6l0-0.7l0.1-1.3l0-0.2
			c0-0.1-0.1-0.2-0.2-0.3c0,0,0,0,0,0c-0.1,0-0.2,0.1-0.4,0.3c-0.3,0.2-0.6,0.3-0.9,0.3c-0.3,0-1.4,0-3.2,0c0,0,0-0.1,0-0.1v-5.1
			c0-0.1,0-0.1,0-0.1c0.4,0,2.5,0,2.8,0.1c1,0.1,1.2,0.3,1.3,0.7c0.1,0.2,0.1,0.5,0.1,0.7c0,0.1,0,0.4,0.3,0.4
			c0.2,0,0.3-0.1,0.3-0.3l0.1-0.9l0-0.4l0.1-1.1l0-0.2c0-0.2-0.1-0.3-0.2-0.3l-0.2,0.1l-0.1,0c0,0-0.9,0.1-0.9,0.1c-0.3,0-3.6,0-5,0
			l-1.1,0l-0.2,0l-1.6,0c-0.2,0-0.5,0-0.5,0.3s0.3,0.3,0.4,0.3c0.3,0,0.5,0,0.8,0.1c0.6,0.1,0.8,0.4,0.8,1.1c0,0.6,0,1.2,0,4.3v3.6
			c0,1.8,0,3.4-0.1,4.3c-0.1,0.6-0.2,1-0.5,1l-0.7,0.1c-0.1,0-0.4,0-0.4,0.3c0,0.2,0.2,0.3,0.5,0.3l1.4,0l1.1,0l2.1,0.1l0.6,0l2.9,0
			c0.8,0,1,0,1.2-0.6c0.1-0.7,0.2-1.5,0.3-2.3C32.3,65.8,32.3,65.5,32.1,65.5 M63.7,55.7c1.3,1.4,2,3.3,2,5.2c0,2.1-0.8,4.2-2.2,5.7
			c-0.7,0.7-2.8,2.4-6.8,2.4c-0.7,0-1.5-0.1-2.3-0.1l-0.2,0l-1.7-0.1l-1.1,0l-1.4,0c-0.3,0-0.5-0.1-0.5-0.3c0-0.3,0.3-0.3,0.4-0.3
			l0.7-0.1c0.3-0.1,0.4-0.4,0.5-1c0.1-0.8,0.1-2.4,0.1-4.3v-3.6c0-3.1,0-3.6,0-4.3c0-0.6-0.2-0.9-0.8-1.1c-0.3,0-0.5-0.1-0.8-0.1
			c-0.1,0-0.4,0-0.4-0.3s0.3-0.3,0.5-0.3l1.9,0l1,0l1.1,0l2,0C58.1,53.4,61.5,53.4,63.7,55.7 M53.8,61.5c0,2.1,0,3.7,0,4.1
			c0,0.5,0.1,1,0.2,1.5c0.1,0.2,0.7,0.8,2.6,0.8c1.7,0.1,3.3-0.4,4.6-1.4c1.1-1,1.7-2.6,1.7-4.9c0.1-1.8-0.6-3.6-1.9-5
			c-1.5-1.4-3.6-2.1-5.7-2c-0.4,0-0.9,0-1.3,0.1c-0.1,0.1-0.2,0.1-0.2,0.3l0,4L53.8,61.5 M76.1,53.1c5.1,0,8.2,2.9,8.2,7.6
			c0.2,4.4-3.3,8.2-7.7,8.4c-0.2,0-0.5,0-0.7,0c-4.3,0.3-8-3-8.2-7.3c0-0.2,0-0.5,0-0.7C67.7,57.2,70.4,53.1,76.1,53.1 M76.8,67.9
			c1.4,0,4.6-0.6,4.6-6.4c0-4.3-2.4-7.2-5.8-7.2c-1.8,0-4.9,0.8-4.9,6.2C70.7,64.8,73.2,67.9,76.8,67.9 M106.7,53.4l-1.4,0l-0.3,0
			l-0.3,0l-1.8,0c-0.2,0-0.6,0-0.6,0.3c0,0.1,0,0.3,0.4,0.3c0.8,0,0.9,0.3,0.9,0.5c0,0.4-0.1,0.8-0.2,1.1l-0.6,2.1
			c-0.8,2.5-1.7,5.6-2,6.8l-4.1-10l-0.1-0.2c-0.2-0.6-0.3-0.8-0.6-0.8c-0.2,0-0.4,0.2-0.6,0.8c0,0-3.4,9-3.8,10.3
			c-0.4-1.4-2.2-7.1-2.5-8.4L89,55.7c-0.1-0.4-0.2-0.9-0.3-1.4c0-0.2,0-0.3,0.2-0.4c0.1-0.1,0.3-0.1,0.5-0.1c0.2,0,0.5,0,0.5-0.3
			c0-0.2-0.2-0.3-0.5-0.3l-1.9,0l-0.3,0l-0.4,0l-2,0c-0.2,0-0.5,0-0.5,0.3s0.3,0.3,0.4,0.3c0.3,0,0.5,0.1,0.8,0.2
			c0.4,0.4,0.6,0.9,0.7,1.4l4.3,12.8c0.2,0.5,0.3,0.8,0.6,0.8s0.4-0.2,0.8-1l0-0.1c0.9-1.8,3.4-8.7,3.9-9.8c0.1,0.3,4.1,9.9,4.1,9.9
			c0.3,0.7,0.4,1,0.7,1c0.3,0,0.5-0.3,0.7-1c0.5-1.5,3-9.1,4-12l0.2-0.5c0.3-0.9,0.5-1.5,0.9-1.6c0.2-0.1,0.4-0.1,0.7-0.1
			c0.3,0,0.4-0.2,0.4-0.3C107.2,53.4,106.9,53.4,106.7,53.4 M113.1,59.4l-0.6-0.4c-1.6-1.2-2.1-1.9-2.1-2.8c0-1.2,0.9-2,2.3-2
			c0.8-0.1,1.6,0.3,2.1,1c0.3,0.4,0.5,0.8,0.5,1.3c0,0.3,0.1,0.5,0.3,0.5c0.3,0,0.3-0.3,0.3-0.7l0.1-2.1l0-0.3
			c0-0.3-0.2-0.3-0.4-0.3c-0.9-0.2-1.8-0.4-2.7-0.3c-2.8,0-4.7,1.6-4.7,3.9c0,1.7,0.9,3.2,3,4.9l0.9,0.7c1.6,1.3,1.9,2.1,1.9,3.2
			c-0.1,1.3-1.2,2.3-2.5,2.2c0,0-0.1,0-0.1,0c-1.3,0.1-2.4-0.7-2.8-2c-0.1-0.3-0.2-0.7-0.2-1c0-0.1,0-0.4-0.3-0.4s-0.3,0.4-0.3,0.6
			v0.1l-0.1,2.6c0,0.5,0.1,0.6,0.4,0.8c0.9,0.4,2,0.6,3,0.5c1.1,0,2.3-0.2,3.3-0.8c1.2-0.8,2-2.1,1.9-3.6
			C116.4,62.7,115.5,61.2,113.1,59.4 M49.7,68.2c0.1,0,0.4,0,0.4,0.3s-0.3,0.3-1,0.3l-3.8,0h-0.1c-0.3,0-0.6,0-0.6-0.2
			c0-0.2,0.2-0.3,0.4-0.3c0.1,0,0.1-0.1,0.1-0.1c0-0.1,0-0.2,0-0.2l-1.6-4.3c0-0.1-0.1-0.1-0.1-0.1h-4.5c0,0,0,0-0.1,0.1l-1.1,2.9
			c-0.2,0.4-0.3,0.8-0.3,1.2c0,0.3,0.1,0.5,0.7,0.5h0.3c0.2,0,0.4,0,0.4,0.3c0,0.3-0.3,0.3-0.4,0.3l-2.1-0.1l-0.4,0l-1.9,0
			c-0.2,0-0.5,0-0.5-0.3c0-0.2,0.1-0.3,0.3-0.3l0.6,0c0.8-0.1,1.2-0.7,1.6-1.8c0,0,0.5-1.2,1.2-2.9c0,0-0.1,0-0.1,0
			c-0.6,0-1.2-0.2-1.8,0.4c-0.3,0.3,0.3-0.8,0.7-1.1c0.4-0.3,1-0.5,1.5-0.5c0,0,0,0,0.1,0c1.5-3.7,3.4-8.6,3.4-8.6
			c0.2-0.6,0.4-0.9,0.7-0.9c0.2,0,0.4,0.2,0.6,0.7l1.8,4.5l3.2,7.9c0.7,1.7,1.3,2,1.7,2.1L49.7,68.2 M42.9,62.3c0,0-1.8-5-1.8-5
			c0,0,0,0,0,0c0,0,0,0,0,0.1l-1.9,5L42.9,62.3L42.9,62.3z M117.6,55.6h0.3v-1.7h0.6v-0.2h-1.4v0.2h0.6L117.6,55.6z M120.4,55.6h0.2
			l-0.1-1.9h-0.3l-0.3,0.9c-0.1,0.2-0.2,0.5-0.2,0.6h0c-0.1-0.2-0.1-0.4-0.2-0.6l-0.3-0.9h-0.3l-0.1,1.9h0.2l0.1-0.8
			c0-0.3,0-0.6,0-0.9h0c0.1,0.2,0.1,0.5,0.2,0.7l0.3,0.9h0.2l0.3-0.9c0.1-0.3,0.2-0.5,0.2-0.7h0c0,0.2,0,0.6,0,0.8L120.4,55.6z
			 M60.4,26.9c8.3,0,16.6,1,24.7,2.9c0.5,0.1,0.6,0,0.1-0.2c-15.9-6.5-33.7-6.5-49.6,0c-0.4,0.2-0.4,0.3,0.1,0.2
			C43.8,27.9,52.1,26.9,60.4,26.9 M66.6,16.3l4,1.7c0,0-0.1,0.9-2.7,2l-0.3,0.5L67,20l-1.6,0.9l1.2,0.4c0,0,1.4,0,3.9-1.6
			c0.7-0.5,1-0.6,1.5-1c0.4-0.3,0.4-0.9,0.1-1.2c0,0-0.1-0.1-0.1-0.1c-1.2-0.8-2.4-1.8-3.5-2.7L66.6,16.3z M66.5,16.8
			c-0.7,0.2-1.5,0.4-2.2,0.5c-0.4,0.7-0.1,1.6-0.2,2c-0.1,0.6-0.7,1-1.3,0.9c-0.7-0.1-1.4-0.2-2.1-0.3l-0.8,0.2l-0.6-0.7l-1.6,0.7
			c0.5,0.3,1.1,0.6,1.7,0.7c1.5,0.3,3.1,0.3,4.6,0.2c0.9-0.1,1-1.2,1.1-1.5S66.5,16.8,66.5,16.8 M51,16.8c-0.8,0.7-2.2,1.3-0.9,2.4
			s3.8,3.5,3.8,3.5l0.7-0.2l0.2,1.5l1.9-0.1c0,0-0.4-0.4-0.9-1.1c-0.3-0.4-4.1-3.8-4.1-3.8l0.9-0.7C52.2,17.7,51.6,17.2,51,16.8
			 M77.5,24c2.2-0.8,1.1-4.3,1.1-4.3C77.1,20.6,76.6,22.5,77.5,24 M77.7,24.3c1.5,2.2,4.4,0.6,4.4,0.6
			C79.3,22.5,77.7,24.3,77.7,24.3 M80.6,21.4c1.7-1.7-0.6-4.6-0.6-4.6C78.4,19.8,80.6,21.4,80.6,21.4 M80.8,21.6
			c2,1.8,4.2-0.6,4.2-0.6C81.8,19.3,80.8,21.6,80.8,21.6 M82.5,18.3c1.1-2-1.6-4.2-1.6-4.2C80.2,17.3,82.5,18.3,82.5,18.3
			 M82.7,18.4c2.2,1.1,3.6-1.8,3.6-1.8C83,16,82.7,18.4,82.7,18.4 M83.2,14.5c0.7-1.8-1.8-3.3-1.8-3.3C81.1,12.7,81.9,14,83.2,14.5
			 M83.5,14.7c2.4,0.3,2.7-3,2.7-3C83.1,12.1,83.5,14.7,83.5,14.7 M83.2,10.9c-0.1-2.2-2.9-2.8-2.9-2.8
			C81.1,11.1,83.2,10.9,83.2,10.9 M83.4,10.9c2.2-0.1,2-3.2,2-3.2C82.6,8.6,83.4,10.9,83.4,10.9 M82.3,7.5c-0.6-2.2-3.4-2-3.4-2
			C80.4,8.2,82.3,7.5,82.3,7.5 M82.6,7.4c1.9-0.9,0.7-3.9,0.7-3.9C82.1,4.4,81.8,6.1,82.6,7.4 M80.7,4.5c-1-1.7-3.1-0.9-3.1-0.9
			C79.4,5.6,80.7,4.5,80.7,4.5 M80.9,4.4c1.5-1,0.1-3.5,0.1-3.5C80,1.9,80,3.4,80.9,4.4 M79.4,2.6c0.1-2-2.5-2.6-2.5-2.6
			C77.5,2.7,79.4,2.6,79.4,2.6 M42.2,24c0.9-1.5,0.4-3.4-1.1-4.3C41.1,19.7,39.9,23.2,42.2,24 M41.9,24.3c0,0-1.6-1.8-4.4,0.6
			C37.5,24.9,40.4,26.5,41.9,24.3 M39.1,21.4c0,0,2.1-1.6,0.6-4.6C39.7,16.8,37.4,19.7,39.1,21.4 M38.9,21.6c0,0-1.1-2.3-4.2-0.6
			C34.6,21,36.9,23.4,38.9,21.6 M37.2,18.3c0,0,2.3-1,1.6-4.2C38.7,14,36,16.2,37.2,18.3 M37,18.4c0,0-0.4-2.4-3.6-1.8
			C33.4,16.6,34.8,19.5,37,18.4 M36.5,14.5c1.3-0.5,2.1-1.9,1.8-3.3C38.3,11.3,35.8,12.8,36.5,14.5 M36.1,14.7c0,0,0.4-2.5-2.7-3
			C33.4,11.7,33.8,15,36.1,14.7 M36.5,10.9c0,0,2,0.3,2.9-2.8C39.4,8.1,36.5,8.6,36.5,10.9 M36.3,10.9c0,0,0.7-2.3-2-3.2
			C34.3,7.6,34.1,10.8,36.3,10.9 M37.3,7.5c0,0,1.9,0.8,3.4-2C40.7,5.4,37.9,5.2,37.3,7.5 M37.1,7.4c0.8-1.3,0.5-3-0.7-3.9
			C36.3,3.4,35.1,6.5,37.1,7.4 M39,4.5c0,0,1.3,1.1,3.1-0.9C42.1,3.6,39.9,2.7,39,4.5 M38.8,4.4c0.9-1,0.8-2.5-0.1-3.5
			C38.7,0.9,37.3,3.3,38.8,4.4 M40.2,2.7c0,0,1.9,0.1,2.5-2.6C42.7,0.1,40.1,0.7,40.2,2.7 M77,6.5c-0.1-0.2-0.4-0.2-0.4-0.2
			c-1.2-1.4-2.6-2.7-4.1-3.7l-2-1.2c-0.1,0.4-0.1,0.8,0.1,1.2c-1.1-0.2-2.3-0.1-3.3,0.5C66,3.8,64.8,5,63.6,4.9
			c0.2,0.3,0.6,0.5,1,0.6c-0.5,0.3-1,0.5-1.6,0.4c-0.8-0.1-1.6,0.4-2,1.1c1.4-0.4,0.8,0.5,2.4,0.8c-1,0.3-2,0.3-3,0
			C60.7,8.2,61,8.6,61.3,9c-1.9,0-4.7-0.2-7.2-0.3c-1.7-0.2-3.4,0.4-4.7,1.4c0,0-0.1-0.1-0.1-0.1c-0.2-0.2-0.5-0.4-0.8-0.6
			c-0.8-0.4-1.6-0.4-2.4,0c-1.2,0.4-1.9,1.4-3.2,3.4c-0.8,1.1-2,1.8-3.4,2c1,0.3,2,0.2,3-0.2c-0.5,0.3-0.9,0.8-1.3,1.3
			c0.8-0.6,2-0.8,3.7-1.4c1.6-0.6,2.7-2.8,3-3c0.2-0.2,0.4-0.2,0.6-0.2c0,0,0,0.1,0.1,0.1l-0.1,0.8c-0.4,2.9,3.8,4.8,4.6,5.7
			s0.3,2.3,1.9,3c1.6,0.8,3.1,1.8,4.6,2.8l0.8-0.1l0.2,2l2.1-0.3c-0.5-0.8-1.1-1.6-1.8-2.3c-0.4-0.3-0.8-0.4-1.2-0.5
			c0,0-3.5-2-3.7-2.8c0.2-1.6,0.6-3.1,1.1-4.6c1.6,0.7,3.3,1.9,7.3,1.8c2.6,0.1,4.8-1.9,5.1-4.5c0-1,0.2-3.4,0.7-4.1
			c0.3-0.5,0.8-0.9,1.3-1.1c-0.4-0.4-0.5-1-0.2-1.5c0,0,0.2,1.5,1.4,1.8c0.5,0.1,2.1-0.3,2.4,0.1c0.2,0.3,0.5,0.5,0.8,0.7
			c0.4,0,0.7-0.1,0.9-0.4C77,7.5,77.2,7,77,6.5 M0.8,76.7h0.8v-1.6h0.4c0.9,0,1.6-0.4,1.6-1.3c0-1-0.8-1.3-1.7-1.3H0.8V76.7z
			 M1.6,73.2h0.3c0.4,0,0.8,0.2,0.8,0.7s-0.4,0.6-0.8,0.6H1.6L1.6,73.2z M4.1,76.7h0.8v-1.2c0-0.4,0-1.3,0.7-1.3
			c0.1,0,0.2,0,0.4,0.1v-0.8c-0.1,0-0.2,0-0.2,0c-0.4,0-0.8,0.4-0.8,0.8h0v-0.7H4.1L4.1,76.7z M7.7,73.6c-0.9,0-1.6,0.6-1.6,1.5
			c0,0.1,0,0.1,0,0.2c0,0.9,0.7,1.6,1.6,1.6c0.9,0,1.6-0.7,1.6-1.6l0,0c0.1-0.9-0.6-1.6-1.5-1.6C7.9,73.6,7.8,73.6,7.7,73.6
			 M7.7,76.2c-0.6,0-0.8-0.6-0.8-1.1c-0.1-0.4,0.2-0.8,0.6-0.9c0.4-0.1,0.8,0.2,0.9,0.6c0,0.1,0,0.2,0,0.3
			C8.5,75.6,8.4,76.2,7.7,76.2 M10.3,76.7h0.8v-2.5h0.7v-0.6h-0.7v-0.4c0-0.2,0.1-0.5,0.4-0.5c0.1,0,0.2,0,0.3,0.1l0.1-0.7
			c-0.2,0-0.4-0.1-0.6-0.1c-0.5,0-1,0.4-1,0.9c0,0.1,0,0.1,0,0.2v0.4H9.7v0.6h0.6L10.3,76.7z M14.8,75.9c-0.3,0.2-0.7,0.3-1,0.3
			c-0.4,0-0.8-0.3-0.9-0.7c0,0,0,0,0,0H15c0-1.1-0.3-1.9-1.5-1.9c-0.8,0-1.4,0.6-1.4,1.4c0,0.1,0,0.1,0,0.2
			c-0.1,0.8,0.5,1.5,1.3,1.6c0.1,0,0.2,0,0.3,0c0.4,0,0.7-0.1,1.1-0.2L14.8,75.9z M12.9,74.9c0-0.4,0.3-0.7,0.7-0.7c0,0,0,0,0,0
			c0.5,0,0.6,0.3,0.7,0.7H12.9z M17.6,73.7c-0.3-0.1-0.6-0.1-0.9-0.1c-0.6,0-1.2,0.3-1.2,1c0,1.1,1.4,0.7,1.4,1.3
			c0,0.3-0.3,0.4-0.5,0.4c-0.3,0-0.5-0.1-0.8-0.2l0,0.7c0.3,0.1,0.6,0.1,0.9,0.1c0.7,0,1.3-0.3,1.3-1c0-1.1-1.4-0.8-1.4-1.3
			c0-0.3,0.3-0.3,0.5-0.3c0.2,0,0.5,0,0.7,0.1L17.6,73.7z M20.2,73.7c-0.3-0.1-0.6-0.1-0.9-0.1c-0.6,0-1.2,0.3-1.2,1
			c0,1.1,1.4,0.7,1.4,1.3c0,0.3-0.3,0.4-0.5,0.4c-0.3,0-0.5-0.1-0.8-0.2l0,0.7c0.3,0.1,0.6,0.1,0.9,0.1c0.7,0,1.3-0.3,1.3-1
			c0-1.1-1.4-0.8-1.4-1.3c0-0.3,0.3-0.3,0.5-0.3c0.2,0,0.5,0,0.7,0.1L20.2,73.7z M21,73.1h0.8v-0.8H21V73.1z M21,76.7h0.8v-3.1H21
			V76.7z M24.1,73.6c-0.9,0-1.6,0.6-1.6,1.5c0,0.1,0,0.1,0,0.2c0,0.9,0.7,1.6,1.6,1.6c0.9,0,1.6-0.7,1.6-1.6
			c0.1-0.9-0.6-1.6-1.5-1.6C24.2,73.6,24.1,73.6,24.1,73.6 M24.1,76.2c-0.6,0-0.8-0.6-0.8-1.1c-0.1-0.4,0.2-0.8,0.6-0.9
			c0.4-0.1,0.8,0.2,0.9,0.6c0,0.1,0,0.2,0,0.3C24.9,75.6,24.7,76.2,24.1,76.2 M26.3,76.7h0.8v-1.5c0-0.4,0.1-1,0.7-1
			c0.5,0,0.5,0.5,0.5,0.9v1.7h0.8v-2c0-0.7-0.3-1.2-1.1-1.2c-0.4,0-0.8,0.2-1,0.5h0v-0.4h-0.8L26.3,76.7z M30.2,74.5
			c0.3-0.2,0.6-0.3,1-0.3c0.5,0,0.7,0.2,0.7,0.7h-0.4c-0.4,0-0.7,0-1,0.2c-0.3,0.2-0.6,0.5-0.5,0.9c0,0.5,0.5,1,1,0.9c0,0,0,0,0,0
			c0.4,0,0.8-0.2,1-0.5h0c0,0.2,0,0.3,0,0.5h0.7c0-0.2,0-0.5,0-0.7s0-0.5,0-0.8v-0.4c0-0.9-0.4-1.3-1.3-1.3c-0.4,0-0.7,0.1-1.1,0.2
			L30.2,74.5z M31.1,76.2c-0.3,0-0.5-0.1-0.5-0.4c0-0.5,0.5-0.5,0.9-0.5h0.3c0,0.2,0,0.4-0.2,0.6C31.5,76.1,31.3,76.2,31.1,76.2
			 M33.4,76.7h0.8v-4.5h-0.8V76.7z M40.6,77.5l-0.9-0.9c0.7-0.4,1.1-1.2,1.1-2c-0.1-1.1-1-2-2.2-1.9c-1.1,0.1-2,1-1.9,2.2
			c0.1,1.1,1,1.9,2.1,1.9c0.1,0,0.1,0,0.2,0l0.7,0.7H40.6z M38.6,76.2c-0.9,0-1.2-0.8-1.2-1.5c0-0.7,0.3-1.5,1.2-1.5
			s1.2,0.8,1.2,1.5C39.8,75.4,39.5,76.2,38.6,76.2 M44.2,73.7h-0.8v1.5c0,0.4-0.1,1-0.7,1c-0.5,0-0.5-0.5-0.5-0.9v-1.7h-0.8v2
			c0,0.7,0.3,1.2,1,1.2c0.4,0,0.8-0.2,1-0.5h0v0.4h0.8L44.2,73.7z M45.2,74.5c0.3-0.2,0.6-0.3,1-0.3c0.5,0,0.7,0.2,0.7,0.7h-0.4
			c-0.4,0-0.7,0-1,0.2c-0.3,0.2-0.6,0.5-0.5,0.9c0,0.5,0.5,1,1,0.9c0,0,0,0,0,0c0.4,0,0.8-0.2,1-0.5h0c0,0.2,0,0.3,0,0.5h0.7
			c0-0.2,0-0.5,0-0.7s0-0.5,0-0.8v-0.4c0-0.9-0.4-1.3-1.3-1.3c-0.4,0-0.7,0.1-1.1,0.2L45.2,74.5z M46.1,76.2c-0.3,0-0.5-0.1-0.5-0.4
			c0-0.5,0.5-0.5,0.9-0.5h0.3c0,0.2,0,0.4-0.2,0.6C46.5,76.1,46.3,76.2,46.1,76.2 M48.4,76.7h0.8v-4.5h-0.8V76.7z M50.1,73.1h0.8
			v-0.8h-0.8V73.1z M50.1,76.7h0.8v-3.1h-0.8V76.7z M52,75.8c-0.1,0.5,0.3,0.9,0.8,1c0.1,0,0.1,0,0.2,0c0.2,0,0.4,0,0.6-0.1l0-0.6
			c-0.1,0.1-0.2,0.1-0.4,0.1c-0.3,0-0.4-0.2-0.4-0.5v-1.4h0.7v-0.6h-0.7v-0.9L52,73v0.6h-0.6v0.6H52L52,75.8z M54.6,73.7h-0.9
			l1.2,3.2c0,0.3-0.2,0.5-0.4,0.5c0,0-0.1,0-0.1,0c-0.1,0-0.3,0-0.4-0.1L53.9,78c0.2,0.1,0.4,0.1,0.6,0.1c0.8,0,1-0.7,1.3-1.4
			l1.2-3.1h-0.8l-0.7,2.3h0L54.6,73.7z M59.1,76.7h2.5v-0.7H60v-1.2h1.5v-0.7H60v-1h1.7v-0.7h-2.5L59.1,76.7z M64.4,78h0.8v-4.4
			h-0.8v0.4h0c-0.2-0.3-0.6-0.5-0.9-0.5c-1,0-1.3,0.8-1.3,1.6s0.3,1.6,1.3,1.6c0.4,0,0.7-0.1,0.9-0.4h0V78z M63,75.2
			c0-0.4,0.1-1,0.7-1s0.7,0.6,0.7,1s-0.2,1-0.7,1S63,75.6,63,75.2 M68.9,73.7h-0.8v1.5c0,0.4-0.1,1-0.7,1c-0.5,0-0.5-0.5-0.5-0.9
			v-1.7h-0.8v2c0,0.7,0.3,1.2,1,1.2c0.4,0,0.8-0.2,1-0.5h0v0.4h0.8L68.9,73.7z M69.7,73.1h0.8v-0.8h-0.8V73.1z M69.7,76.7h0.8v-3.1
			h-0.8V76.7z M71.4,76.7h0.8v-1.5c0-0.4,0.1-1,0.7-1c0.5,0,0.5,0.5,0.5,0.9v1.7h0.8v-2c0-0.7-0.3-1.2-1.1-1.2c-0.4,0-0.8,0.2-1,0.5
			h0v-0.4h-0.7L71.4,76.7z M77.5,75.9c-0.3,0.2-0.7,0.3-1,0.3c-0.4,0-0.8-0.3-0.9-0.7c0,0,0,0,0,0h2.1c0-1.1-0.3-1.9-1.5-1.9
			c-0.8,0-1.4,0.6-1.4,1.4c0,0.1,0,0.1,0,0.2c-0.1,0.8,0.5,1.5,1.3,1.6c0.1,0,0.2,0,0.3,0c0.4,0,0.7-0.1,1.1-0.2L77.5,75.9z
			 M75.6,74.9c0-0.4,0.3-0.7,0.7-0.7c0,0,0,0,0,0c0.5,0,0.6,0.3,0.7,0.7H75.6z M82.5,72.6c-0.3-0.1-0.7-0.2-1-0.1
			c-0.7,0-1.5,0.3-1.5,1.3c0,1.4,1.8,1.1,1.8,1.9c0,0.4-0.4,0.5-0.7,0.5c-0.3,0-0.7-0.1-0.9-0.3l-0.1,0.8c0.3,0.1,0.7,0.2,1.1,0.2
			c0.8,0,1.6-0.3,1.6-1.3c0-1.4-1.8-1.1-1.8-1.8c0-0.3,0.3-0.6,0.6-0.6c0,0,0.1,0,0.1,0c0.3,0,0.6,0.1,0.9,0.2L82.5,72.6z
			 M86.3,73.7h-0.8v1.5c0,0.4-0.1,1-0.7,1c-0.5,0-0.5-0.5-0.5-0.9v-1.7h-0.8v2c0,0.7,0.3,1.2,1,1.2c0.4,0,0.8-0.2,1-0.5h0v0.4h0.8
			L86.3,73.7z M87.1,78h0.8v-1.6h0c0.2,0.3,0.6,0.4,0.9,0.4c1,0,1.3-0.8,1.3-1.6s-0.3-1.6-1.3-1.6c-0.4,0-0.8,0.2-1,0.5h0v-0.4h-0.8
			L87.1,78z M87.9,75.2c0-0.4,0.2-1,0.7-1s0.7,0.6,0.7,1s-0.1,1-0.7,1S87.9,75.6,87.9,75.2 M90.8,78h0.8v-1.6h0
			c0.2,0.3,0.6,0.4,0.9,0.4c1,0,1.3-0.8,1.3-1.6s-0.3-1.6-1.3-1.6c-0.4,0-0.8,0.2-1,0.5h0v-0.4h-0.8L90.8,78z M91.6,75.2
			c0-0.4,0.2-1,0.7-1s0.7,0.6,0.7,1s-0.1,1-0.7,1S91.6,75.6,91.6,75.2 M94.4,76.7h0.8v-4.5h-0.8V76.7z M98.6,75.9
			c-0.3,0.2-0.7,0.3-1,0.3c-0.4,0-0.8-0.3-0.9-0.7c0,0,0,0,0,0h2.2c0-1.1-0.3-1.9-1.5-1.9c-0.8,0-1.4,0.6-1.4,1.4c0,0.1,0,0.1,0,0.2
			c-0.1,0.8,0.5,1.5,1.3,1.6c0.1,0,0.2,0,0.3,0c0.4,0,0.7-0.1,1.1-0.2L98.6,75.9z M96.7,74.9c0-0.4,0.3-0.7,0.7-0.7c0,0,0,0,0,0
			c0.5,0,0.6,0.3,0.7,0.7H96.7z M99.4,76.7h0.8v-1.5c0-0.4,0.1-1,0.6-1c0.5,0,0.5,0.4,0.5,0.7v1.8h0.8v-1.5c0-0.4,0.1-1,0.6-1
			c0.5,0,0.5,0.4,0.5,0.7v1.8h0.8v-2c0-0.7-0.2-1.2-1-1.2c-0.4,0-0.8,0.2-1,0.5c-0.2-0.4-0.5-0.6-0.9-0.5c-0.4,0-0.7,0.2-0.9,0.5h0
			v-0.4h-0.8L99.4,76.7z M107.2,75.9c-0.3,0.2-0.7,0.3-1,0.3c-0.4,0-0.8-0.3-0.9-0.7c0,0,0,0,0,0h2.1c0-1.1-0.3-1.9-1.5-1.9
			c-0.8,0-1.4,0.6-1.4,1.4c0,0.1,0,0.1,0,0.2c-0.1,0.8,0.5,1.5,1.3,1.6c0.1,0,0.2,0,0.3,0c0.4,0,0.7-0.1,1.1-0.2L107.2,75.9z
			 M105.3,74.9c0-0.4,0.3-0.7,0.7-0.7c0,0,0,0,0,0c0.5,0,0.6,0.3,0.7,0.7H105.3z M108.1,76.7h0.8v-1.5c0-0.4,0.1-1,0.7-1
			c0.5,0,0.5,0.5,0.5,0.9v1.7h0.8v-2c0-0.7-0.3-1.2-1-1.2c-0.4,0-0.8,0.2-1,0.5h0v-0.4h-0.8L108.1,76.7z M112,75.8
			c-0.1,0.5,0.3,0.9,0.8,1c0.1,0,0.1,0,0.2,0c0.2,0,0.4,0,0.6-0.1l0-0.6c-0.1,0.1-0.2,0.1-0.4,0.1c-0.3,0-0.4-0.2-0.4-0.5v-1.4h0.7
			v-0.6h-0.7v-0.9L112,73v0.6h-0.6v0.6h0.6L112,75.8z M116,73.7c-0.3-0.1-0.6-0.1-0.9-0.1c-0.6,0-1.2,0.3-1.2,1
			c0,1.1,1.4,0.7,1.4,1.3c0,0.3-0.3,0.4-0.5,0.4c-0.3,0-0.5-0.1-0.8-0.2l0,0.7c0.3,0.1,0.6,0.1,0.9,0.1c0.7,0,1.3-0.3,1.3-1
			c0-1.1-1.4-0.8-1.4-1.3c0-0.3,0.3-0.3,0.5-0.3c0.2,0,0.5,0,0.7,0.1L116,73.7z"/>
	</g>
</g>
</svg>
