<?xml version="1.0" encoding="utf-8"?>
<!-- Generator: Adobe Illustrator 23.0.4, SVG Export Plug-In . SVG Version: 6.00 Build 0)  -->
<svg version="1.1" id="Layer_1" xmlns="http://www.w3.org/2000/svg" xmlns:xlink="http://www.w3.org/1999/xlink" x="0px" y="0px"
	 viewBox="0 0 141.8 141.8" style="enable-background:new 0 0 141.8 141.8;" xml:space="preserve">
<style type="text/css">
	.st0{fill:#232323;}
</style>
<g>
	<g id="Component">
		<path id="Path_19" class="st0" d="M53.8,98.1c0-0.2-0.1-0.4-0.2-0.5c-0.2-0.1-0.3-0.2-0.5-0.2h-0.9v1.3l1.1,0
			C53.5,98.7,53.8,98.4,53.8,98.1C53.8,98.1,53.8,98.1,53.8,98.1z"/>
		<path id="Path_20" class="st0" d="M70.9,0C31.8,0,0,31.8,0,70.9c0,39.2,31.8,70.9,70.9,70.9s70.9-31.8,70.9-70.9c0,0,0,0,0,0
			C141.8,31.8,110.1,0,70.9,0z M42.1,121.2h-6.3v-9.7h6.3v2.5h-3.5v1h3.2v2.5h-3.2v1.1h3.6V121.2z M51.2,121.2H49l-3-4.4v4.4h-2.8
			v-9.7h2.2l3,4.4v-4.4h2.8V121.2z M56.8,101.8c0,0.8-0.3,1.6-0.9,2.1c-0.7,0.6-1.6,0.8-2.5,0.8h-4.1V95h3.8
			c0.9-0.1,1.8,0.2,2.5,0.7c0.6,0.5,0.9,1.2,0.9,2c-1.1,0.8-1.3,2.4-0.5,3.5C56.3,101.5,56.5,101.7,56.8,101.8L56.8,101.8z
			 M60.5,121.2h-2.8v-3.6h-2.3v3.6h-2.8v-9.7h2.8v3.4h2.3v-3.4h2.8V121.2z M57.7,104.7V95h2.8v9.7H57.7z M67.5,121.2l-0.3-1.2h-2.8
			l-0.3,1.2h-3l3.1-9.7h3.2l3.1,9.7H67.5z M70.2,103.5c-2,1.9-5.2,1.9-7.3,0c-2-2-2-5.2,0-7.2c2-1.9,5.2-1.9,7.3,0
			C72.2,98.3,72.2,101.5,70.2,103.5z M79,121.2h-2.2l-3-4.4v4.4H71v-9.7h2.2l3,4.4v-4.4H79L79,121.2z M79.5,97.7h-2.3v7h-2.8v-7
			h-2.3V95h7.3V97.7z M83.4,118.1c0.4,0.4,1,0.7,1.7,0.7c0.4,0,0.8-0.1,1.1-0.3c0.3-0.2,0.6-0.4,0.7-0.8l2.4,1.4
			c-0.4,0.7-1,1.3-1.8,1.7c-0.8,0.4-1.6,0.6-2.5,0.6c-2.8,0-5.1-2.2-5.1-5c0-2.8,2.2-5.1,5-5.1c0,0,0,0,0,0c0.9,0,1.7,0.2,2.5,0.6
			c0.7,0.4,1.3,1,1.8,1.7l-2.4,1.4c-0.2-0.3-0.4-0.6-0.7-0.7c-0.3-0.2-0.7-0.3-1.1-0.3c-0.6,0-1.2,0.2-1.7,0.7
			C82.6,115.7,82.6,117.1,83.4,118.1L83.4,118.1z M80.4,104.7V95h2.8v9.7H80.4z M84.5,104.7V95h2.2l3,4.4V95h2.8v9.7h-2.2l-3-4.4
			v4.4H84.5z M96.6,121.2h-6.3v-9.7h6.3v2.5H93v1h3.2v2.5H93v1.1h3.6V121.2z M105.1,119.9c-0.9,0.9-2.1,1.4-3.3,1.4h-4v-9.7h4
			c1.3,0,2.5,0.5,3.3,1.4C106.8,114.9,106.8,117.9,105.1,119.9z M111.6,52.4c-2.6,0-5-1.3-6.5-3.5l-25,6.4c-0.4,4.2-4.1,7.4-8.3,7
			c-1-0.1-1.9-0.3-2.8-0.8L61,69.6c2.1,3.7,0.9,8.4-2.8,10.6s-8.4,0.9-10.6-2.8c-2.1-3.7-0.9-8.4,2.8-10.6c2.4-1.4,5.5-1.4,7.9,0.1
			l7.8-7.7c-0.9-1.3-1.4-2.8-1.4-4.4c0-0.6,0.1-1.1,0.2-1.7L44.8,37.9c-3.4,2.6-8.2,1.9-10.8-1.5c-2.6-3.4-1.9-8.2,1.5-10.8
			c3.4-2.6,8.2-1.9,10.8,1.5c1.7,2.2,2,5.2,0.9,7.7l19.5,14.7c2.8-3.2,7.7-3.4,10.9-0.6c0.8,0.7,1.4,1.6,1.9,2.6l24.5-6.3
			c0-0.2,0-0.3,0-0.5c0-4.3,3.5-7.7,7.7-7.7c4.3,0,7.7,3.5,7.7,7.7C119.4,49,115.9,52.4,111.6,52.4L111.6,52.4L111.6,52.4z"/>
		<path id="Path_21" class="st0" d="M66.6,97.5c-1.3,0-2.3,1.1-2.2,2.4c0,1.3,1.1,2.3,2.4,2.2c1.3,0,2.3-1.1,2.2-2.4
			c0-0.6-0.3-1.1-0.7-1.5C67.8,97.7,67.2,97.5,66.6,97.5z"/>
		<path id="Path_22" class="st0" d="M53.4,101l-1.3,0v1.4h1.2c0.2,0,0.4-0.1,0.6-0.2c0.3-0.3,0.3-0.7,0-1
			C53.8,101,53.6,101,53.4,101L53.4,101z"/>
		<path id="Path_23" class="st0" d="M64.9,117.8h1.6l-0.8-3L64.9,117.8z"/>
		<path id="Path_24" class="st0" d="M101.7,114.3h-1.1v4.3h1.1c0.5,0,1-0.2,1.4-0.6c0.7-0.9,0.7-2.2,0-3.1
			C102.7,114.5,102.2,114.3,101.7,114.3z"/>
	</g>
</g>
</svg>
