<?xml version="1.0" encoding="utf-8"?>
<!-- Generator: Adobe Illustrator 23.0.4, SVG Export Plug-In . SVG Version: 6.00 Build 0)  -->
<svg version="1.1" id="Layer_1" xmlns="http://www.w3.org/2000/svg" xmlns:xlink="http://www.w3.org/1999/xlink" x="0px" y="0px"
	 viewBox="0 0 145.9 27.7" style="enable-background:new 0 0 145.9 27.7;" xml:space="preserve">
<style type="text/css">
	.st0{clip-path:url(#SVGID_2_);}
	.st1{fill:#161616;}
</style>
<g>
	<defs>
		<rect id="SVGID_1_" width="145.9" height="27.7"/>
	</defs>
	<clipPath id="SVGID_2_">
		<use xlink:href="#SVGID_1_"  style="overflow:visible;"/>
	</clipPath>
	<g id="Component" class="st0">
		<path id="Path_6" class="st1" d="M19.3,0l13,9.1l-13,9.2l-13-9.1L19.3,0z M4.3,10.4L0,13.8l19.3,13.9l19.4-13.9l-4.4-3.3l-15,10.7
			L4.3,10.4z M43.5,5.5v14.2h5.8c1.9,0,3.6-0.7,4.9-2c2.6-2.9,2.6-7.3,0-10.1c-1.3-1.3-3.1-2.1-4.9-2L43.5,5.5z M47.3,16.1V9h2
			c0.9,0,1.8,0.3,2.4,1c1.2,1.5,1.2,3.7,0,5.2c-0.6,0.7-1.5,1-2.4,1L47.3,16.1z M61.4,6.7c0-0.5-0.2-1-0.6-1.4c-0.8-0.8-2-0.8-2.7,0
			c0,0,0,0,0,0c-0.4,0.4-0.6,0.8-0.6,1.4c0,1.1,0.9,1.9,1.9,1.9C60.5,8.7,61.4,7.8,61.4,6.7z M61.1,19.6V9.5h-3.4v10.1H61.1z
			 M70.2,10.4c-0.7-0.8-1.8-1.3-2.9-1.2c-1.3,0-2.5,0.5-3.4,1.5c-1.8,2.2-1.8,5.4,0,7.6c0.8,1,2.1,1.6,3.4,1.5
			c1.1,0.1,2.2-0.4,2.9-1.2v0.9h3.4V9.5h-3.4V10.4z M65.9,14.6c0-0.6,0.2-1.2,0.6-1.6c0.9-0.8,2.2-0.8,3.1,0c0.8,0.9,0.8,2.3,0,3.2
			c-0.9,0.8-2.2,0.8-3.1,0C66.1,15.7,65.9,15.2,65.9,14.6L65.9,14.6z M84.2,10.5c-0.6-0.9-1.6-1.4-2.6-1.3c-1.1-0.1-2.1,0.4-2.7,1.2
			v-1h-3.4v10.1h3.4v-5.5c0-0.4,0.1-0.9,0.4-1.2c0.3-0.3,0.6-0.5,1-0.5c0.9,0,1.3,0.5,1.3,1.4v5.8h3.4v-5.5c0-0.4,0.1-0.9,0.4-1.2
			c0.3-0.3,0.6-0.5,1-0.5c0.8,0,1.3,0.5,1.3,1.4v5.8h3.4v-6.2c0.1-1.1-0.3-2.2-1-3.1C88.3,8.8,85.8,8.9,84.2,10.5
			C84.2,10.5,84.2,10.5,84.2,10.5L84.2,10.5z M101.5,18.4c2.1-2.1,2.1-5.5,0-7.6c-2.1-2.1-5.5-2.1-7.7,0c-2.1,2.1-2.1,5.5,0,7.6
			c0,0,0,0,0,0C96,20.4,99.4,20.4,101.5,18.4z M96.2,16.1c-0.8-0.9-0.8-2.2,0-3c0.4-0.4,0.9-0.6,1.4-0.6c0.6,0,1.1,0.2,1.5,0.6
			c0.8,0.9,0.8,2.2,0,3c-0.4,0.4-0.9,0.6-1.5,0.6C97.1,16.7,96.6,16.5,96.2,16.1L96.2,16.1z M107.9,10.5v-1h-3.4v10.1h3.4v-5.4
			c0-0.5,0.1-1,0.4-1.4c0.3-0.3,0.8-0.5,1.2-0.5c0.4,0,0.8,0.1,1.1,0.4c0.3,0.3,0.4,0.8,0.4,1.2v5.6h3.4v-6.1c0.1-1.2-0.3-2.3-1-3.2
			c-0.7-0.7-1.7-1.2-2.7-1.1C109.7,9.1,108.6,9.6,107.9,10.5L107.9,10.5z M123.4,10.4c-0.7-0.8-1.8-1.3-2.9-1.2
			c-1.3,0-2.5,0.5-3.4,1.5c-1.8,2.2-1.8,5.4,0,7.6c0.8,1,2.1,1.6,3.4,1.5c1.1,0.1,2.2-0.4,2.9-1.2v0.9h3.4V5.5h-3.4V10.4z
			 M119.2,14.6c0-0.6,0.2-1.2,0.6-1.6c0.9-0.8,2.2-0.8,3.1,0c0.8,0.9,0.8,2.3,0,3.2c-0.9,0.8-2.2,0.8-3.1,0
			C119.4,15.7,119.2,15.2,119.2,14.6L119.2,14.6z M141.3,19.6l4.6-14.2h-4l-2.8,9.8l-2.8-9.8h-4l4.6,14.2H141.3z"/>
	</g>
</g>
</svg>
