<?xml version="1.0" encoding="utf-8"?>
<!-- Generator: Adobe Illustrator 23.0.4, SVG Export Plug-In . SVG Version: 6.00 Build 0)  -->
<svg version="1.1" id="Layer_1" xmlns="http://www.w3.org/2000/svg" xmlns:xlink="http://www.w3.org/1999/xlink" x="0px" y="0px"
	 viewBox="0 0 141.8 141.8" style="enable-background:new 0 0 141.8 141.8;" xml:space="preserve">
<style type="text/css">
	.st0{fill:#232323;}
</style>
<g>
	<g id="Component">
		<path id="Path_7" class="st0" d="M61.9,114.1h-1v1.8h1c0.3,0,0.5-0.1,0.7-0.2c0.2-0.2,0.3-0.4,0.3-0.7c0-0.2-0.1-0.5-0.3-0.7
			C62.4,114.2,62.2,114.1,61.9,114.1z"/>
		<path id="Path_8" class="st0" d="M51.9,114.1c-1.3,0-2.3,1.1-2.2,2.4c0,1.3,1.1,2.3,2.4,2.2s2.3-1.1,2.2-2.4
			c0-0.6-0.3-1.1-0.7-1.5C53.2,114.3,52.6,114.1,51.9,114.1z"/>
		<path id="Path_9" class="st0" d="M83.4,97.7v4.3h1.1c0.5,0,1-0.2,1.4-0.6c0.7-0.9,0.7-2.2,0-3.1c-0.4-0.4-0.9-0.6-1.4-0.6
			L83.4,97.7z"/>
		<path id="Path_10" class="st0" d="M97,117.8h1.6l-0.8-3L97,117.8z"/>
		<path id="Path_11" class="st0" d="M70.3,68.2v6.1c0,0.7,0.5,1.3,1.2,1.3c0.7,0,1.3-0.5,1.3-1.2c0,0,0,0,0-0.1v-6.1
			c0.6-0.2,1.1-0.5,1.5-0.9c1.5-1.5,1.5-4,0-5.5c-1.5-1.5-4-1.5-5.5,0c-1.5,1.5-1.5,4,0,5.5C69.2,67.7,69.7,68,70.3,68.2z"/>
		<path id="Path_12" class="st0" d="M70.9,0C31.8,0,0,31.8,0,70.9s31.8,70.9,70.9,70.9s70.9-31.8,70.9-70.9l0,0
			C141.8,31.8,110.1,0,70.9,0z M56.5,38.2c0-5.7,4.6-10.3,10.3-10.3h9.4c5.7,0,10.3,4.6,10.3,10.3v8.1h-5v-8.1
			c0-2.9-2.4-5.3-5.3-5.3h-9.4c-2.9,0-5.3,2.4-5.3,5.3v8.1h-5L56.5,38.2z M49.9,50c0-0.6,0.3-1.3,0.7-1.7l0,0l0,0
			c0.5-0.5,1.1-0.7,1.7-0.7h38.4c0.6,0,1.3,0.3,1.7,0.7l0,0c0.5,0.5,0.7,1.1,0.7,1.7v35.2c0,1.3-1.1,2.4-2.4,2.4H52.4
			c-0.6,0-1.3-0.3-1.7-0.7l0,0c-0.5-0.5-0.7-1.1-0.7-1.7L49.9,50z M89.2,99.9c0,1.3-0.5,2.5-1.3,3.4c-0.9,0.9-2.1,1.4-3.3,1.4h-4V95
			h4c1.3,0,2.5,0.5,3.3,1.4C88.7,97.3,89.2,98.6,89.2,99.9L89.2,99.9z M79,98.6v2.5h-3.2v1.1h3.6v2.5H73V95h6.3v2.5h-3.5v1H79z
			 M62.7,95v9.7H60V95H62.7z M58.8,99v2.7h-3.2v3h-2.8V95h6v2.7h-3.2V99H58.8z M46.1,114.3h-3.2v1.3H46v2.7h-3.2v3h-2.8v-9.7h6
			L46.1,114.3z M55.6,120c-2,1.9-5.2,1.9-7.3,0c-2-2-2-5.2,0-7.2c2-1.9,5.2-1.9,7.3,0C57.6,114.8,57.6,118,55.6,120z M63.1,121.2
			l-1.5-3h-0.7v3h-2.8v-9.7H62c1,0,1.9,0.3,2.6,0.9c0.7,0.6,1.1,1.5,1,2.5c0,1.1-0.5,2.1-1.5,2.7l1.9,3.6L63.1,121.2z M63.4,104.7
			l2.9-4.9L63.5,95h3.1l1.3,2.2l1.3-2.2h3.1l-2.9,4.8l2.9,4.9h-3.1l-1.4-2.3l-1.4,2.3H63.4z M76.8,121.2H74v-4.7l-2.2,3.6h-0.2
			l-2.2-3.6v4.7h-2.8v-9.7h2.8l2.3,3.9l2.3-3.9h2.8L76.8,121.2z M85.9,118c0,1-0.4,1.9-1.1,2.5c-1.7,1.3-4,1.3-5.7,0
			c-0.7-0.6-1.1-1.5-1.1-2.5v-6.4h2.8v6.1c0,0.7,0.4,1.1,1.2,1.1c0.8,0,1.2-0.4,1.2-1.1v-6.1h2.8L85.9,118z M99.5,121.2l-0.3-1.2
			h-2.8l-0.3,1.2h-8.9v-9.7h2.8v7h3.2v2.7l3.1-9.7h3.2l3.1,9.7H99.5z"/>
	</g>
</g>
</svg>
