<?xml version="1.0" encoding="utf-8"?>
<!-- Generator: Adobe Illustrator 23.0.4, SVG Export Plug-In . SVG Version: 6.00 Build 0)  -->
<svg version="1.1" id="Layer_1" xmlns="http://www.w3.org/2000/svg" xmlns:xlink="http://www.w3.org/1999/xlink" x="0px" y="0px"
	 viewBox="0 0 141.8 141.8" style="enable-background:new 0 0 141.8 141.8;" xml:space="preserve">
<style type="text/css">
	.st0{fill:#232323;}
	.st1{clip-path:url(#SVGID_2_);}
</style>
<g>
	<g id="Component">
		<path id="Path_43" class="st0" d="M141.6,70.7C141.6,70.7,141.6,70.7,141.6,70.7 M70.7,141.6"/>
	</g>
</g>
<g>
	<defs>
		<rect id="SVGID_1_" width="141.8" height="141.8"/>
	</defs>
	<clipPath id="SVGID_2_">
		<use xlink:href="#SVGID_1_"  style="overflow:visible;"/>
	</clipPath>
	<g id="Component_1_" class="st1">
		<path id="Path_13" class="st0" d="M99.6,114.1h-1.4v4.8h1.4c0.6,0,1.2-0.2,1.6-0.7c0.8-1,0.8-2.5,0-3.5
			C100.8,114.3,100.2,114.1,99.6,114.1z"/>
		<path id="Path_14" class="st0" d="M57.8,114h-1.3v2.1h1.3c0.3,0,0.5-0.1,0.7-0.3c0.4-0.4,0.4-1.1,0-1.5
			C58.3,114.1,58,114,57.8,114z"/>
		<path id="Path_15" class="st0" d="M70.9,0C31.8,0,0,31.8,0,70.9s31.8,70.9,70.9,70.9s70.9-31.8,70.9-70.9l0,0
			C141.8,31.8,110.1,0,70.9,0z M42.3,121.3h-6.1v-9.5h6v2.3h-3.6v1.3h3.3v2.2h-3.3v1.4h3.7L42.3,121.3z M39.3,99.9
			c0-1.4,0.5-2.7,1.5-3.6c2-1.9,5.2-1.9,7.3,0c2,2,2,5.2,0,7.2c-2,1.9-5.2,1.9-7.3,0C39.8,102.5,39.2,101.2,39.3,99.9L39.3,99.9z
			 M51.8,121.3h-1.9l-3.4-4.8v4.8h-2.4v-9.5H46l3.4,4.8v-4.8h2.4L51.8,121.3z M53.3,104.7h-2.8V95h2.8l2.3,3.9l2.3-3.9h2.8v9.7h-2.8
			V100l-2.2,3.6h-0.2l-2.2-3.6L53.3,104.7z M58.9,121.3l-1.7-3.1h-0.9v3.1H54v-9.5h3.8c0.9,0,1.8,0.3,2.4,0.9c0.7,0.6,1,1.5,1,2.4
			c0,0.6-0.1,1.1-0.4,1.6c-0.3,0.5-0.7,0.9-1.2,1.1l2,3.5L58.9,121.3z M67.9,98.6v2.5h-3.2v1.1h3.6v2.5H62V95h6.3v2.5h-3.5v1H67.9z
			 M65.5,121.3h-2.4v-9.5h2.4L65.5,121.3z M70.4,118.4c0.8,0.8,2,0.9,3,0.4c0.3-0.2,0.6-0.5,0.8-0.8l2.1,1.2c-0.4,0.7-1,1.3-1.7,1.6
			c-0.7,0.4-1.6,0.6-2.4,0.6c-2.7,0.1-5-2-5.1-4.8c-0.1-2.7,2-5,4.8-5.1c0.1,0,0.2,0,0.3,0c0.8,0,1.7,0.2,2.4,0.6
			c0.7,0.4,1.3,1,1.7,1.6l-2.1,1.2c-0.2-0.3-0.5-0.6-0.8-0.8c-1-0.5-2.2-0.3-3,0.4C69.5,115.7,69.5,117.3,70.4,118.4L70.4,118.4z
			 M74.2,104.9c-1.4,0.1-2.7-0.5-3.7-1.4c-1.9-2-1.9-5.2,0-7.2c0.9-1,2.2-1.5,3.6-1.5c0.9,0,1.7,0.2,2.5,0.6
			c0.7,0.4,1.3,0.9,1.8,1.6L76,98.4c-0.4-0.6-1.1-0.9-1.8-0.9c-0.6,0-1.2,0.2-1.7,0.7c-0.4,0.5-0.7,1.1-0.6,1.7
			c0,0.6,0.2,1.2,0.6,1.7c0.5,0.5,1.1,0.8,1.8,0.7c0.8,0.1,1.6-0.3,1.9-1h-2.1V99h4.9v1.1c0.1,2.5-1.9,4.7-4.4,4.8
			C74.5,104.9,74.4,104.9,74.2,104.9L74.2,104.9z M85.6,121.3h-2.4v-3.7h-2.7v3.7h-2.4v-9.5h2.4v3.5h2.7v-3.5h2.4V121.3z
			 M85.3,103.5h-2.8l-0.3,1.2h-3l3.1-9.7h3.2l3.1,9.7h-3L85.3,103.5z M93.9,121.3h-6.1v-9.5h6v2.3h-3.6v1.3h3.3v2.2h-3.3v1.4h3.7
			L93.9,121.3z M94.7,101.7h-5.5v-2.4h5.5V101.7z M99.1,100.8h-0.6l-1.1-1.6l1.3-1.5h-2.9V95h6.3v2.1l-1.5,1.8
			c0.6,0.2,1.1,0.5,1.5,1c0.4,0.5,0.6,1.1,0.6,1.7c0.1,0.9-0.3,1.8-1,2.4c-0.7,0.6-1.6,0.9-2.6,0.8c-0.8,0-1.5-0.2-2.2-0.6
			c-0.6-0.4-1.1-1-1.4-1.7l2.4-1.4c0.1,0.6,0.6,1,1.2,1c0.2,0,0.4-0.1,0.6-0.2c0.2-0.1,0.2-0.3,0.2-0.5
			C99.9,101.1,99.6,100.8,99.1,100.8L99.1,100.8z M102.9,119.9c-0.9,0.9-2,1.4-3.3,1.4h-3.9v-9.5h3.9c1.2,0,2.4,0.5,3.3,1.4
			C104.7,115,104.7,118,102.9,119.9L102.9,119.9z M99.6,70.4c-0.5-0.3-4.8-3.7-4.9-3.6c-4.8,3.5-10,6.2-15.6,8
			c-2.1,0.7-4.3,1.3-6.6,1.7c-1.1,0-2.1,0.7-2.6,1.7c-0.4,0.7-0.2,2.6-0.8,3.1c-0.9,0.8-3.8-0.9-4.6-1.5c-1.1-0.8-1.9-2.5-3.2-2.9
			c-1.5-0.5-3.6-0.2-5.2-0.5c-3.2-0.5-6.2-1.6-9.1-3.1c-4.4-2.5-8.4-6.7-8.4-12c0-5,3.5-9,7.6-11.5c2.5-1.5,5.2-2.6,8-3.2
			c2.4-0.4,4.9-0.7,7.3-0.8c2.5-0.3,5-1,7.3-1.9c1.8-0.8,3.6-1.3,5.5-1.7c1-0.2,3.1-0.6,4,0.1c0.8,0.6,0.4,1.5,0.4,2.4
			c0.1,1.1,0.3,2.1,0.8,3.1c0.1,0.2,0.2,0.4,0.4,0.5c0.2,0.1,0.4,0.2,0.6,0.3c3.7,1.3,7.2,2.9,10.5,5c0.2,0.1,3.8,2.5,3.7,2.7
			c1.4-2.2,4-3.5,6.2-4.6c1.6-0.8,3.7-1.9,5.4-2c-1.3,2.8-3.4,5-4.3,8.1c-0.9,2.9-0.8,5.9,0.1,8.8c0.9,2.7,2.3,5.1,4.3,7.1
			C104,72.8,101.7,71.8,99.6,70.4L99.6,70.4z"/>
		<path id="Path_16" class="st0" d="M83.2,101.2h1.6l-0.8-3L83.2,101.2z"/>
		<path id="Path_17" class="st0" d="M48.3,53.4c-1.4,0-2.6,1.1-2.6,2.6c0,1.4,1.1,2.6,2.6,2.6c1.4,0,2.6-1.1,2.6-2.6l0,0
			C50.9,54.5,49.8,53.4,48.3,53.4z"/>
		<path id="Path_18" class="st0" d="M46.1,101.5c1-0.9,1-2.5,0.1-3.5c-0.9-1-2.5-1-3.5-0.1s-1,2.5-0.1,3.5c0.5,0.5,1.1,0.8,1.8,0.8
			C45,102.2,45.6,102,46.1,101.5z"/>
	</g>
</g>
</svg>
