<?xml version="1.0" encoding="utf-8"?>
<!-- Generator: Adobe Illustrator 23.0.4, SVG Export Plug-In . SVG Version: 6.00 Build 0)  -->
<svg version="1.1" id="Layer_1" xmlns="http://www.w3.org/2000/svg" xmlns:xlink="http://www.w3.org/1999/xlink" x="0px" y="0px"
	 viewBox="0 0 141.8 141.8" style="enable-background:new 0 0 141.8 141.8;" xml:space="preserve">
<style type="text/css">
	.st0{clip-path:url(#SVGID_2_);}
	.st1{fill:#232323;}
</style>
<g>
	<defs>
		<rect id="SVGID_1_" width="141.8" height="141.8"/>
	</defs>
	<clipPath id="SVGID_2_">
		<use xlink:href="#SVGID_1_"  style="overflow:visible;"/>
	</clipPath>
	<g id="Component" class="st0">
		<path id="Path_25" class="st1" d="M52.1,97.6h-1v1.8h1c0.3,0,0.5-0.1,0.7-0.2C53,99,53,98.7,53,98.5c0-0.2-0.1-0.5-0.3-0.7
			C52.6,97.6,52.3,97.5,52.1,97.6z"/>
		<path id="Path_26" class="st1" d="M88.1,37.8l1.9,0.3c0.5-2.7-0.7-5.5-2.9-7.1l-1.1,1.5C87.6,33.7,88.4,35.8,88.1,37.8z"/>
		<path id="Path_27" class="st1" d="M88.6,64.2c1.4,0.1,2.4,1.3,2.3,2.7c0,0,0,0,0,0l1.9,0.1c0.2-2.4-1.6-4.5-4-4.7c0,0,0,0,0,0
			L88.6,64.2z"/>
		<path id="Path_28" class="st1" d="M84.3,68.5c-1.4-0.1-2.4-1.4-2.3-2.7c0.1-0.7,0.4-1.3,0.9-1.7l-1.2-1.4c-1.8,1.6-2,4.4-0.3,6.2
			c1.5,1.7,4.1,1.9,5.9,0.5l-1.2-1.4C85.6,68.4,85,68.6,84.3,68.5z"/>
		<path id="Path_29" class="st1" d="M80,74.5l0.2-2.6l-1.9-0.1c-0.3,4.7-0.5,5,0.2,5.4s0.8,0.1,5.5-3l-1-1.6L80,74.5z"/>
		<path id="Path_30" class="st1" d="M70.7,102.6c0.2,0,0.4,0,0.6-0.1l-1.4-1.5c-0.2,0.2-0.3,0.5-0.3,0.7c0,0.2,0.1,0.5,0.3,0.6
			C70.1,102.6,70.4,102.6,70.7,102.6z"/>
		<path id="Path_31" class="st1" d="M83.1,97.7H82v1.6h1.1c0.2,0,0.4-0.1,0.5-0.2c0.3-0.3,0.3-0.8,0-1.1
			C83.5,97.8,83.3,97.7,83.1,97.7z"/>
		<path id="Path_32" class="st1" d="M91.3,97.6h-1v1.8h1c0.3,0,0.5-0.1,0.7-0.2c0.2-0.2,0.3-0.4,0.3-0.7c0-0.2-0.1-0.5-0.3-0.7
			C91.8,97.6,91.6,97.5,91.3,97.6z"/>
		<path id="Path_33" class="st1" d="M70.9,0C31.8,0,0,31.8,0,70.9s31.8,70.9,70.9,70.9s70.9-31.8,70.9-70.9l0,0
			C141.8,31.8,110.1,0,70.9,0z M95.8,61c3.5,1.1,5.4,4.8,4.3,8.3c-0.5,1.5-1.5,2.8-2.9,3.7c-0.4-1.6-1.4-2.9-2.8-3.6l-0.9,1.7
			c0.9,0.5,1.5,1.3,1.8,2.2c1.1,3.5-3.4,6.9-6.8,4.4c-0.8-0.7-1.5-1.6-2-2.6l-4.7,5.8c-0.6,0.7-1.5,1.1-2.4,1.1
			c-0.9,0-1.2-0.2-3.8-1.4c-1.3-0.6-2-2-1.8-3.4l1.2-8.1L74,68.7c-3.7-0.9-6-4.7-5.1-8.4c0.9-3.7,4.7-6,8.4-5.1l0,0l0,0
			c1.4,0.3,2.7,1.2,3.4,2.4l1.6-1c-0.9-1.4-2.3-2.5-3.9-3c3.8-4.3,10.7,0,8.6,4l1.7,0.9c0.6-1.2,0.8-2.6,0.5-4
			C93.5,52.8,97.9,57,95.8,61z M95.4,104.7h-3l-1.5-3h-0.7v3h-2.8V95h3.9c1,0,1.9,0.3,2.6,0.9c0.7,0.6,1.1,1.5,1,2.5
			c0,1.1-0.5,2.1-1.5,2.7L95.4,104.7z M86.7,98.5c0,0.9-0.3,1.9-1,2.5c-0.7,0.6-1.6,1-2.5,0.9H82v2.7h-2.8V95h3.9
			c0.9,0,1.8,0.3,2.5,0.9C86.3,96.6,86.7,97.6,86.7,98.5L86.7,98.5z M67.9,97.7c0-0.8,0.3-1.6,0.9-2.1c0.6-0.6,1.5-0.9,2.3-0.8
			c1.5-0.1,2.9,0.8,3.5,2.2l-2.3,1.3c-0.3-0.7-0.6-1-1-1c-0.4,0-0.6,0.2-0.6,0.6c0,0,0,0.1,0,0.1c0,0,0,0.1,0,0.1c0,0,0,0.1,0,0.1
			c0,0,0,0.1,0.1,0.1c0,0,0.1,0.1,0.1,0.1c0,0,0.1,0.1,0.1,0.1l0.1,0.1l0.1,0.2c0.1,0.1,0.1,0.1,0.2,0.2l1.4,1.6
			c0.2-0.4,0.3-0.8,0.4-1.3l2.2,1.3c-0.2,0.7-0.5,1.3-0.9,1.9l1.1,1.3l-2.1,1.2l-0.8-0.8c-0.8,0.4-1.6,0.7-2.5,0.7
			c-0.9,0.1-1.9-0.3-2.6-0.9c-0.6-0.5-1-1.3-0.9-2.1c0-1.1,0.6-2.1,1.6-2.6C68.1,98.8,67.9,98.3,67.9,97.7L67.9,97.7z M78.3,17.2
			c2.2,0.8,3.5,3.1,3.1,5.4c-0.6,0-1.3-0.1-1.9-0.2c0.3-1.5-0.5-3-2-3.5L78.3,17.2z M80.6,23.5L80.6,23.5c3.1,0,4.6,1.7,6.1,3.1
			h-3.8l-2,2.6l-2.3-2.6h-4.1C76.1,25.1,77.4,23.5,80.6,23.5L80.6,23.5z M72.6,26.9c0.1,0.9,0.9,1.6,1.9,1.6h3.2
			c1.7,2,2,2.6,3.2,2.6s1.4-0.7,2.9-2.6h2.9c0.9,0,1.7-0.7,1.9-1.6c8.9,6.2,6,22.3-8.3,22.3C67.5,49.2,63.4,33.4,72.6,26.9
			L72.6,26.9z M59.7,39.4c4.1,0.2,7.4,3.3,7.8,7.4c0.3,3.4-1.3,6.7-4.3,8.5c-1.5,1.1-3.2,1.9-4.9,2.6c-2.5,0.7-5.1,0.3-7.2-1.1
			c-3.4-2.2-4.7-6.7-2.9-10.4l1.8-4c0.2-0.4,0.2-0.3,4.8-3.1C55.1,39.1,54.9,39.1,59.7,39.4L59.7,39.4z M62.8,98.6v2.5h-3.2v1.1h3.6
			v2.5h-6.3V95h6.3v2.5h-3.5v1H62.8z M61.5,59.8l-1-1.6l4.2-2.5l1,1.6L61.5,59.8z M56.2,104.7h-3l-1.5-3H51v3h-2.8V95h3.9
			c1,0,1.9,0.3,2.6,0.9c0.7,0.6,1.1,1.5,1,2.5c0,1.1-0.5,2.1-1.5,2.7L56.2,104.7z M41.8,23.8c0.7-0.4,1.2,0.2,1.8,0.7
			c4,3.8,5.3,6.4,8,11c-0.7-2.9-1.8-5.7-3.4-8.2l1.6-1c2.3,3.7,2.3,4.5,4.5,11.6l-0.9,0.5l0,0l-1.6,1c-4.7-7.7-5.2-8.8-7.2-11.1
			c1.2,2.8,1.8,3.8,6.5,11.5l-1.6,1c-4.6-7.5-6.4-10.1-7.9-15.1C41.4,25,41.1,24.3,41.8,23.8L41.8,23.8z M43.9,102h-1.1v2.7h-2.8V95
			h3.9c0.9,0,1.8,0.3,2.5,0.9c1.3,1.4,1.3,3.6,0,5C45.8,101.7,44.9,102,43.9,102L43.9,102z M53.6,120.5c-0.7,0.6-1.6,0.8-2.5,0.8H47
			v-9.7h3.8c0.9-0.1,1.8,0.2,2.5,0.7c0.6,0.5,0.9,1.2,0.9,2c-1.1,0.8-1.3,2.4-0.5,3.5c0.2,0.3,0.5,0.5,0.7,0.6
			C54.5,119.2,54.2,120,53.6,120.5L53.6,120.5z M58.1,121.3h-2.8v-9.7h2.8L58.1,121.3z M67.9,120c-2,1.9-5.2,1.9-7.3,0
			c-2-2-2-5.2,0-7.2c2-1.9,5.2-1.9,7.3,0C69.9,114.8,69.9,118,67.9,120z M77.2,114.3h-2.3v7h-2.8v-7h-2.3v-2.7h7.3L77.2,114.3z
			 M80.8,121.3H78v-9.7h2.8V121.3z M85.2,118.1c0.4,0.4,1,0.7,1.7,0.7c0.4,0,0.8-0.1,1.1-0.3c0.3-0.2,0.6-0.4,0.7-0.8l2.4,1.4
			c-0.4,0.7-1,1.3-1.8,1.7c-0.8,0.4-1.6,0.6-2.5,0.6c-2.8,0-5.1-2.2-5.1-5c0-2.8,2.2-5.1,5-5.1c0,0,0,0,0,0c0.9,0,1.7,0.2,2.5,0.6
			c0.7,0.4,1.3,1,1.8,1.7l-2.4,1.4c-0.2-0.3-0.4-0.6-0.7-0.7c-0.3-0.2-0.7-0.3-1.1-0.3c-0.6,0-1.2,0.2-1.7,0.7
			C84.3,115.7,84.3,117.1,85.2,118.1L85.2,118.1z M98.3,120.7c-0.8,0.6-1.8,0.9-2.8,0.8c-0.9,0-1.8-0.2-2.6-0.7
			c-0.7-0.4-1.2-1-1.4-1.8l2.4-1.4c0.2,0.8,0.9,1.3,1.7,1.2c0.6,0,0.9-0.2,0.9-0.5c0-0.1,0-0.2-0.1-0.2c-0.1-0.1-0.2-0.2-0.3-0.2
			c-0.1-0.1-0.2-0.1-0.3-0.1s-0.3-0.1-0.5-0.1s-0.4-0.1-0.5-0.2c-1.9-0.6-2.9-1.6-2.9-3.1c0-0.8,0.3-1.6,1-2.2
			c0.7-0.6,1.6-0.9,2.5-0.9c0.8,0,1.5,0.2,2.2,0.6c0.6,0.4,1.1,1,1.4,1.7l-2.3,1.3c-0.2-0.6-0.7-1-1.3-1c-0.2,0-0.4,0-0.5,0.1
			c-0.1,0.1-0.2,0.2-0.2,0.4c0,0.2,0.1,0.4,0.3,0.5c0.4,0.2,0.8,0.3,1.3,0.4c0.5,0.1,0.8,0.3,1.1,0.4c0.3,0.1,0.6,0.3,0.9,0.5
			c0.3,0.2,0.6,0.5,0.7,0.9c0.2,0.4,0.3,0.8,0.2,1.2C99.3,119.3,99,120.1,98.3,120.7L98.3,120.7z M104.5,103.5c-2,1.9-5.2,1.9-7.3,0
			c-2-2-2-5.2,0-7.2c2-1.9,5.2-1.9,7.3,0C106.5,98.3,106.5,101.5,104.5,103.5z"/>
		<path id="Path_34" class="st1" d="M51.4,114.6c0-0.2-0.1-0.4-0.2-0.5c-0.2-0.1-0.3-0.2-0.5-0.2h-0.9v1.3l1.1,0
			C51.1,115.2,51.4,115,51.4,114.6C51.4,114.6,51.4,114.6,51.4,114.6z"/>
		<path id="Path_35" class="st1" d="M100.9,97.5c-1.3,0-2.3,1.1-2.2,2.4s1.1,2.3,2.4,2.2c1.3,0,2.3-1.1,2.2-2.4
			c0-0.6-0.3-1.1-0.7-1.5C102.1,97.7,101.5,97.5,100.9,97.5z"/>
		<path id="Path_36" class="st1" d="M51.1,117.5l-1.3,0v1.4h1.2c0.2,0,0.4-0.1,0.6-0.2c0.3-0.3,0.3-0.7,0-1
			C51.4,117.6,51.2,117.5,51.1,117.5z"/>
		<path id="Path_37" class="st1" d="M64.3,114.1c-1.3,0-2.3,1.1-2.2,2.4c0,1.3,1.1,2.3,2.4,2.2s2.3-1.1,2.2-2.4
			c0-0.6-0.3-1.1-0.7-1.5C65.5,114.3,64.9,114.1,64.3,114.1z"/>
		<path id="Path_38" class="st1" d="M43.9,97.7h-1.1v1.6h1.1c0.2,0,0.4-0.1,0.5-0.2c0.3-0.3,0.3-0.8,0-1.1
			C44.3,97.8,44.1,97.7,43.9,97.7z"/>
	</g>
</g>
</svg>
